<?xml version="1.0" encoding="UTF-8"?>
<svg data-bbox="0.001 0 2243.389 1883.02" viewBox="0 0 2243.39 1883.01" xmlns="http://www.w3.org/2000/svg" data-type="ugc">
    <g>
        <g>
            <path d="M2243.39 0v176.64c-20.91 47.21-39.87 95-50.47 145.41-19.49 92.74-9.53 188.82-14.45 283.46s-28.66 195.17-99.23 258.41c-62.8 56.28-151.55 73.24-221.67 120.1-63.43 42.39-109.25 107.7-173.91 148.21-48.88 30.62-105.72 45.35-159.49 66.22a728.22 728.22 0 0 0-296.55 214.17C1158 1292 1048.09 1195 919.74 1140.9c-88.28-37.24-190.34-58.52-251-132.65-74.39-90.85-59.07-228-120.26-328.16C386.69 415.21-73.61 408.05 10.08 0z" fill="#ffd261"/>
            <path d="M1418.17 307.82a2.74 2.74 0 0 1-2-.89 413.938 413.938 0 0 0-27.9-27.2c-4.81 1.23-8.61 2.32-12.6 3.48-5.89 1.7-12 3.46-22.28 6a2.78 2.78 0 0 1-2.68-4.61c12.13-12.9 18.2-20.49 25.24-29.27l2.42-3c-1.59-4.73-6.77-20-10.47-28.78a2.77 2.77 0 0 1 4-3.48 175.65 175.65 0 0 0 29.1 13.46l22.3-20.08a2.78 2.78 0 0 1 4.58 2.66l-6.44 29.38a189.78 189.78 0 0 1 31.66 10.31 2.79 2.79 0 0 1-.2 5.2c-11.38 3.82-23 7.22-34.69 10.11l2.76 33.7a2.79 2.79 0 0 1-2.77 3zM1389 273.89a2.74 2.74 0 0 1 1.84.7c8.24 7.25 16.27 14.9 23.94 22.82l-2.31-28.21a2.79 2.79 0 0 1 2.11-2.93c9.81-2.38 19.63-5.12 29.29-8.18a183.15 183.15 0 0 0-26.33-7.77 2.76 2.76 0 0 1-2.13-3.31l5.17-23.64-17.1 15.39a2.78 2.78 0 0 1-2.77.57 180.92 180.92 0 0 1-24.81-10.74c3.92 10.36 8 22.71 8.22 23.36a2.79 2.79 0 0 1-.48 2.61c-1.16 1.45-2.28 2.84-3.36 4.2-5.77 7.19-10.89 13.59-19.17 22.72 5.19-1.36 9.14-2.5 13-3.62 4.42-1.27 8.6-2.48 14.21-3.88a2.57 2.57 0 0 1 .68-.09z" fill="#ffffff"/>
            <path d="M1387.74 580.64a2.1 2.1 0 0 1-1.7.16c-9.51-3.1-19.26-5.79-29-8-2.8 2.63-5 4.79-7.22 7.06-3.35 3.35-6.81 6.81-12.85 12.34a2.15 2.15 0 0 1-3.53-2.11c3.38-13.26 4.66-20.65 6.14-29.22q.24-1.44.51-2.94c-2.84-2.61-12-11-17.83-15.55a2.17 2.17 0 0 1-.69-2.42 2.14 2.14 0 0 1 2.07-1.42 134.92 134.92 0 0 0 24.75-1.73l7.59-21.9a2.15 2.15 0 0 1 4.09.09l6.62 22.27a146.58 146.58 0 0 1 25.25-4.85 2.15 2.15 0 0 1 1.8 3.59 346.361 346.361 0 0 1-19.67 19.79l14.44 21.75a2.13 2.13 0 0 1-.08 2.49 2 2 0 0 1-.69.6zm-32.4-12a2.17 2.17 0 0 1 1.5-.22c8.28 1.83 16.57 4 24.71 6.5l-12.09-18.21a2.14 2.14 0 0 1 .33-2.77c5.75-5.27 11.36-10.79 16.75-16.47a141.87 141.87 0 0 0-20.7 4.58 2.17 2.17 0 0 1-1.64-.17 2.15 2.15 0 0 1-1-1.27l-5.33-17.92-5.87 16.75a2.18 2.18 0 0 1-1.67 1.42 140.44 140.44 0 0 1-20.78 2c6.52 5.54 13.89 12.37 14.28 12.73a2.13 2.13 0 0 1 .65 1.94c-.25 1.41-.48 2.77-.71 4.09-1.21 7-2.29 13.26-4.48 22.52 3-2.85 5.25-5.1 7.45-7.3 2.51-2.52 4.89-4.89 8.16-7.93a2.07 2.07 0 0 1 .44-.31z" fill="#ffffff"/>
            <path d="M606.16 242.35a2 2 0 0 1-1.31-.79 285.92 285.92 0 0 0-16.56-21.28c-3.42.39-6.12.78-9 1.2-4.19.61-8.53 1.24-15.83 2a1.92 1.92 0 0 1-1.41-3.41c9.53-7.7 14.41-12.33 20.06-17.69l1.94-1.84c-.64-3.39-2.75-14.36-4.47-20.72a1.93 1.93 0 0 1 3-2 119.51 119.51 0 0 0 18.7 12l17.18-11.66a1.92 1.92 0 0 1 2.89 2.25l-7.18 19.54A130.48 130.48 0 0 1 635 210a1.93 1.93 0 0 1-.63 3.54c-8.16 1.55-16.47 2.78-24.73 3.67l-1.28 23.36a2 2 0 0 1-1.36 1.73 2 2 0 0 1-.84.05zm-16.81-26a1.89 1.89 0 0 1 1.19.65c5 5.75 9.75 11.75 14.26 17.9l1.07-19.56a2 2 0 0 1 1.73-1.81c6.95-.71 13.94-1.66 20.85-2.85a125.67 125.67 0 0 0-17.32-7.8 2 2 0 0 1-1.09-1 1.9 1.9 0 0 1-.06-1.48l5.77-15.72-13.17 8.95a1.92 1.92 0 0 1-2 .12 126 126 0 0 1-16-9.69c1.72 7.47 3.36 16.32 3.44 16.79a1.91 1.91 0 0 1-.57 1.74l-2.7 2.56c-4.63 4.39-8.75 8.3-15.28 13.78 3.69-.45 6.5-.86 9.26-1.26 3.15-.46 6.13-.89 10.11-1.33a2.46 2.46 0 0 1 .51.01z" fill="#ffffff"/>
            <path d="M1605.54 834.71c.53-2.77.1-5.86-.09-8.67a53.61 53.61 0 0 1 .12-8.31c.13-1.43.31-2.86.55-4.27a39 39 0 0 0 2.92-3.66c2.09-3 3.76-6.44 3.23-10.18a2.23 2.23 0 0 0-1.73-2c-1.08-4.66-4-9-8.89-9.7-7-1-14.8 3.65-19 9s-6.93 13.55-2 19.41 13 5.86 19.2 2.35l.48-.29a54.22 54.22 0 0 0-.19 6.62c.11 3.38.53 7.46 2.57 10.25a1.58 1.58 0 0 0 2.83-.55zm-9.48-20.13c-5.29 2.11-13.31.11-12.71-6.83.55-6.4 6.33-12 12.1-14.11 3.07-1.12 6.31-1.63 8.92.75a10.4 10.4 0 0 1 2.65 4.28c-1.53 1.3-2.42 3.51-3.15 5.36a55.54 55.54 0 0 0-2.24 6.9 18.53 18.53 0 0 1-5.57 3.65z" fill="#ffffff"/>
            <path d="M1636.05 824.38c-2.92-1.52-5.86-3-8.73-4.63a47.51 47.51 0 0 0 2.58-6.31 1.25 1.25 0 0 0-1.88-1.31 15.3 15.3 0 0 0-4 5.64 40.7 40.7 0 0 0-6.64-3.54c-1.13-.43-2.77.78-1.81 2a28.45 28.45 0 0 0 6.71 5.8 32.31 32.31 0 0 0-1.58 6.52c-.37 2.83 4 3.82 4.36 1a51.67 51.67 0 0 1 .89-5.12 73.24 73.24 0 0 0 7.93 4.33c2.78 1.24 4.97-2.92 2.17-4.38z" fill="#ffffff"/>
            <path d="M1666.82 844.58c-1.66-7.23-9.43-11.05-16.36-10.4.24-.48.49-1 .74-1.44a63.07 63.07 0 0 0 22.56-19.87 45.43 45.43 0 0 0 4.74-8.26c1.15-2.63 2.16-5.51 1.45-8.4a6.84 6.84 0 0 0-5.2-5c-3.32-.62-5.14 2.11-6.74 4.52q-11.57 17.37-21.35 35.72l-4.45 2.73a1.08 1.08 0 0 0 .89 1.94l1.34-.45q-2.67 5.13-5.22 10.33c-1.3 2.66-2.75 5.87-1.36 8.78 1.47 3.08 5.14 3.4 8.12 3.89a27.94 27.94 0 0 0 10.07.14c6.47-1.32 12.36-7.25 10.77-14.23zm3-45.37c.77-1.31 1.61-3.46 2.94-4.28 2.67-1.64 3.74 2.55 3.52 4.36-.58 4.71-3.55 9.82-6.41 13.52-4.25 5.47-9.62 9.77-15.33 13.62 4.22-7.93 8.62-15.77 13.12-23.53.68-1.24 1.4-2.46 2.13-3.69zm-15 54.35a22.66 22.66 0 0 1-7.35.07c-1.32-.16-2.68-.29-4-.58-1.5-.34-1.41-1-1-2.43a57.22 57.22 0 0 1 3.59-7.7q1.58-3.2 3.18-6.37c4 2.53 10 3.74 12 8.51 1.69 4.29-2.69 7.71-6.45 8.5z" fill="#ffffff"/>
            <path d="M1507.64 454.25a23.89 23.89 0 0 0 4.27-5.84c.52-1.17-.86-2-1.83-1.65a16.52 16.52 0 0 0-3.95 2.16c-1.3.88-3.15 1.82-4.2 3.06a15.76 15.76 0 0 0-.3-1.71 39.6 39.6 0 0 1 .06-4.87 59.92 59.92 0 0 1 2.1-12.65 1.41 1.41 0 0 0 .18-.29 12.21 12.21 0 0 0 1-3.42c.24-.68.48-1.35.73-2a2.49 2.49 0 0 0-1-3 14.06 14.06 0 0 0-7.94-9.83c-7.27-3.05-14.81 1.53-20.18 6.21-6.25 5.45-12.59 13-10.12 22 2.37 8.57 12.19 11.06 19.73 7.83 3.85-1.65 7.1-4.57 9.95-7.69a39.88 39.88 0 0 0 0 9.2c.41 3.25 2.66 7 6.45 6.29 2.08-.45 3.69-2.28 5.05-3.8zm-23.39-10.4c-3.11 1.44-7.32 2-10.06-.54s-2.12-7-.6-10c1.73-3.42 4.71-6.2 7.57-8.68 2.54-2.21 5.47-4.43 8.83-5.17 5.55-1.22 8.46 2.67 10.06 7.16-2.88 7-9.05 14.1-15.8 17.23z" fill="#ffffff"/>
            <path d="M1543.07 437.31c-1.52-6-6.79-8.32-12.12-7.87l.08-.09a81.9 81.9 0 0 0 8.84-12.08 92.51 92.51 0 0 0 6.48-12.65c1.46-3.51 2.18-7.2-.25-10.42a2.71 2.71 0 0 0-3.16-.69c-9.76 3.72-14 13.81-17.44 22.89-3.78 10.15-8.38 20.35-10.69 31-.9 4.15-1.88 9.7 2.23 12.54 3.64 2.51 8.67 1.24 12.23-.76 7.54-4.28 16.25-12.26 13.8-21.87zm-.6-37.79c-.17 2.45-2.26 5.8-3 7.3a92.42 92.42 0 0 1-6 10.8c-1.86 2.88-3.87 5.67-6 8.4.61-1.66 1.22-3.32 1.79-5 2.86-7.93 5.5-17.31 13.21-21.5zm-15.66 54.36c-1.4.79-4.3 2.32-5.94 1.41s-.83-4.14-.54-5.8a80 80 0 0 1 2.75-10.86c3.36-1.27 6.46-3.74 10.21-3.09 4.3.74 5.33 5.23 3.68 8.79-1.87 4.03-6.35 7.42-10.16 9.55z" fill="#ffffff"/>
            <path d="M1570.12 463.51a2.08 2.08 0 0 0-3.29-2.25c-3.07 2.85-8 4.47-11.62 1.56s-3.29-8.38-1.84-12.26a17 17 0 0 1 7.22-8.53 14.58 14.58 0 0 1 5.22-1.86c.83-.12 2.69-.45 3.35.31s-.1.59-.77 1a1.77 1.77 0 0 0-.84 2.32c1.86 3.16 6.42 1.66 7.28-1.55 1-3.74-2-6.94-5.49-7.67-7.43-1.57-15.41 3.64-19.41 9.55-4.3 6.37-5.76 16.32-.16 22.43 5.93 6.44 17.23 5.76 20.35-3.05z" fill="#ffffff"/>
            <path d="M514.48 355.76a23.91 23.91 0 0 0-1.89-7c-.58-1.14-2.08-.57-2.43.39a16.24 16.24 0 0 0-.79 4.43c-.12 1.57-.56 3.6-.24 5.19a16.7 16.7 0 0 0-1.52-.83 37.05 37.05 0 0 1-3.76-3.1 59.12 59.12 0 0 1-8.55-9.55 1.46 1.46 0 0 0-.12-.33 12.65 12.65 0 0 0-2.06-2.89c-.39-.6-.76-1.21-1.12-1.82a2.48 2.48 0 0 0-3-1.11 14 14 0 0 0-12.63 0c-6.94 3.77-8.09 12.51-7.79 19.62.34 8.29 2.29 18 10.78 21.63 8.17 3.52 16.26-2.58 18.45-10.48 1.12-4 .88-8.4.24-12.57a39.16 39.16 0 0 0 7.16 5.76c2.79 1.72 7.1 2.3 9-1.09 1.02-1.83.6-4.23.27-6.25zm-22.76 11.74c-.82 3.32-3 7-6.71 7.5s-6.78-2.71-8.17-5.78c-1.59-3.49-1.89-7.55-2-11.33-.13-3.37 0-7.05 1.5-10.13 2.52-5.09 7.36-4.93 11.87-3.36 3.62 6.6 5.29 15.88 3.51 23.1z" fill="#ffffff"/>
            <path d="M523.44 317.53c-5.62-2.56-10.74.09-13.73 4.53v-.12a82.11 82.11 0 0 0-3.89-14.46 93 93 0 0 0-5.8-13c-1.83-3.33-4.26-6.2-8.3-6.33a2.74 2.74 0 0 0-2.51 2c-3.2 10 2 19.6 6.94 27.93 5.55 9.31 10.63 19.27 17.46 27.72 2.67 3.29 6.38 7.54 11.17 6.11 4.24-1.27 6.4-6 7.07-10 1.39-8.49.62-20.28-8.41-24.38zm-29.85-23.19c1.8 1.67 3.11 5.39 3.84 6.89a95.44 95.44 0 0 1 4.67 11.43c1.08 3.25 2 6.57 2.82 9.9-.92-1.51-1.83-3-2.76-4.5-4.47-7.15-10.16-15.06-8.57-23.72zm32.6 46.24c-.27 1.58-.89 4.8-2.63 5.51s-3.74-1.94-4.86-3.2A82.41 82.41 0 0 1 512 334c1.11-3.42 1.13-7.39 4-9.91 3.27-2.88 7.41-.88 9.15 2.64 1.91 3.93 1.76 9.55 1.04 13.85z" fill="#ffffff"/>
            <path d="M560.8 312.83A2.08 2.08 0 0 0 557 314c.3 4.19-1.55 9.07-6 10s-8.61-2.68-10.72-6.23a17 17 0 0 1-2.14-11 14.55 14.55 0 0 1 1.82-5.24c.42-.72 1.33-2.38 2.33-2.42s.41.45.29 1.22a1.76 1.76 0 0 0 1.28 2.1c3.63.53 5.32-4 3.35-6.65-2.29-3.11-6.69-2.74-9.42-.51-5.88 4.81-6.8 14.3-4.69 21.11 2.27 7.35 9.11 14.71 17.39 14.17 8.7-.55 15.21-9.76 10.31-17.72z" fill="#ffffff"/>
            <path d="M802.41 965.84l-.23.07a3.3 3.3 0 0 1-3.58-1.44l-9.6-15.19-5 3.15a16.74 16.74 0 0 1-23.07-5.19l-30.67-48.49a16.72 16.72 0 0 1 5.19-23.06l84.32-53.34a16.73 16.73 0 0 1 23.06 5.19L873.51 876a16.74 16.74 0 0 1-5.19 23.07l-31.22 19.78a80 80 0 0 0-18.48 16c-12.74 15.11-13.92 28-13.93 28.12a3.32 3.32 0 0 1-2.28 2.87zm-15-23.16a5.9 5.9 0 0 1 6.8 2.47l5.75 9.09a71.47 71.47 0 0 1 13.61-23.66 86.59 86.59 0 0 1 20-17.32l31.23-19.75a10.11 10.11 0 0 0 3.13-13.94l-30.67-48.49a10.11 10.11 0 0 0-13.94-3.14L739 881.28a10.1 10.1 0 0 0-3.14 13.94l30.67 48.49a10.12 10.12 0 0 0 13.94 3.13l5.58-3.53a5.91 5.91 0 0 1 1.35-.63z" fill="#ffffff"/>
            <path d="M831.56 841.5l-81.87 51.79a2.57 2.57 0 0 1-3.55-.8 2.58 2.58 0 0 1 .8-3.56l81.87-51.79a2.57 2.57 0 0 1 3.55.8 2.58 2.58 0 0 1-.8 3.56z" fill="#ffffff"/>
            <path d="M786.22 885l-29.81 18.9a2.58 2.58 0 0 1-3.56-.8 2.58 2.58 0 0 1 .8-3.56l29.81-18.86a2.58 2.58 0 0 1 3.56.8 2.58 2.58 0 0 1-.8 3.52z" fill="#ffffff"/>
            <path d="M806.89 872l-12.73 8a2.57 2.57 0 0 1-3.55-.8 2.57 2.57 0 0 1 .8-3.55l12.73-8.06a2.57 2.57 0 0 1 3.55.81 2.57 2.57 0 0 1-.8 3.6z" fill="#ffffff"/>
            <path d="M838.28 852.11L815 866.83a2.58 2.58 0 0 1-3.56-.8 2.58 2.58 0 0 1 .8-3.56l23.27-14.72a2.59 2.59 0 0 1 3.56.8 2.58 2.58 0 0 1-.79 3.56z" fill="#ffffff"/>
            <path d="M776.62 906l-13.5 8.54a2.59 2.59 0 0 1-3.56-.8 2.58 2.58 0 0 1 .8-3.56l13.5-8.54a2.59 2.59 0 0 1 3.56.8 2.58 2.58 0 0 1-.8 3.56z" fill="#ffffff"/>
            <path d="M827.87 873.55l-41.52 26.26a2.57 2.57 0 0 1-3.55-.8 2.59 2.59 0 0 1 .8-3.56l41.51-26.26a2.58 2.58 0 0 1 3.56.8 2.58 2.58 0 0 1-.8 3.56z" fill="#ffffff"/>
            <path d="M807.6 901.23l-37.77 23.89a2.57 2.57 0 0 1-3.55-.8 2.57 2.57 0 0 1 .8-3.56l37.76-23.89a2.59 2.59 0 0 1 3.56.8 2.58 2.58 0 0 1-.8 3.56z" fill="#ffffff"/>
            <path d="M834.58 884.16l-18.11 11.46a2.57 2.57 0 0 1-3.55-.81 2.57 2.57 0 0 1 .8-3.55l18.11-11.46a2.57 2.57 0 0 1 3.55.8 2.58 2.58 0 0 1-.8 3.56z" fill="#ffffff"/>
            <path d="M845 862.72l-7.9 5a2.57 2.57 0 0 1-3.55-.8 2.57 2.57 0 0 1 .8-3.55l7.89-5a2.59 2.59 0 0 1 3.56.8 2.58 2.58 0 0 1-.8 3.55z" fill="#ffffff"/>
            <path d="M750.1 404.25a2.54 2.54 0 0 1-2.28-1.41c-.05-.1-5.41-10.52-21.23-18.85a72.11 72.11 0 0 0-20.87-7.11L673.11 371a14.58 14.58 0 0 1-11.75-16.93l9.16-50.64a14.56 14.56 0 0 1 16.93-11.74l88 15.92a14.57 14.57 0 0 1 11.75 16.93l-9.16 50.63a14.58 14.58 0 0 1-16.93 11.75l-5.61-1-2.95 16.27a2.54 2.54 0 0 1-2.15 2.07 2 2 0 0 1-.3-.01zm-65.26-107.73a9.48 9.48 0 0 0-9.32 7.8L666.37 355a9.51 9.51 0 0 0 7.63 11l32.61 5.89a77.24 77.24 0 0 1 22.39 7.6 62.88 62.88 0 0 1 19.74 15.67l1.88-10.39a4.88 4.88 0 0 1 5.66-3.93l5.83 1.06a9.5 9.5 0 0 0 11-7.65l9.15-50.64a9.49 9.49 0 0 0-7.64-11l-88.06-15.92a9.76 9.76 0 0 0-1.72-.17z" fill="#ffffff"/>
            <path d="M684.18 311.14l85.5 15.45a2.3 2.3 0 0 0 2.68-1.86 2.29 2.29 0 0 0-1.86-2.68L685 306.59a2.3 2.3 0 0 0-2.68 1.86 2.31 2.31 0 0 0 1.86 2.69z" fill="#ffffff"/>
            <path d="M736.54 332.05l31.13 5.63a2.32 2.32 0 0 0 2.69-1.87 2.31 2.31 0 0 0-1.86-2.68l-31.14-5.63a2.3 2.3 0 0 0-2.68 1.86 2.31 2.31 0 0 0 1.86 2.69z" fill="#ffffff"/>
            <path d="M715 328.14l13.29 2.41a2.32 2.32 0 0 0 2.69-1.87 2.31 2.31 0 0 0-1.86-2.68l-13.3-2.41a2.31 2.31 0 0 0-2.68 1.87 2.3 2.3 0 0 0 1.86 2.68z" fill="#ffffff"/>
            <path d="M682.18 322.22l24.3 4.39a2.31 2.31 0 0 0 2.68-1.86 2.31 2.31 0 0 0-1.86-2.69l-24.3-4.39a2.32 2.32 0 0 0-2.69 1.86 2.32 2.32 0 0 0 1.87 2.69z" fill="#ffffff"/>
            <path d="M751.57 346.21l14.1 2.55a2.32 2.32 0 0 0 2.69-1.87 2.32 2.32 0 0 0-1.87-2.68l-14.09-2.55a2.32 2.32 0 0 0-2.69 1.86 2.32 2.32 0 0 0 1.86 2.69z" fill="#ffffff"/>
            <path d="M698.05 336.53l43.35 7.84a2.32 2.32 0 0 0 2.69-1.86 2.32 2.32 0 0 0-1.86-2.69L698.87 332a2.3 2.3 0 0 0-2.68 1.87 2.3 2.3 0 0 0 1.86 2.66z" fill="#ffffff"/>
            <path d="M724.23 352.71l39.44 7.13a2.31 2.31 0 0 0 2.68-1.86 2.32 2.32 0 0 0-1.86-2.69l-39.44-7.13a2.32 2.32 0 0 0-2.69 1.86 2.32 2.32 0 0 0 1.87 2.69z" fill="#ffffff"/>
            <path d="M696.05 347.61L715 351a2.3 2.3 0 0 0 2.68-1.86 2.31 2.31 0 0 0-1.86-2.69l-18.91-3.42a2.32 2.32 0 0 0-2.69 1.87 2.31 2.31 0 0 0 1.83 2.71z" fill="#ffffff"/>
            <path d="M680.17 333.3l8.25 1.49a2.31 2.31 0 0 0 2.68-1.86 2.32 2.32 0 0 0-1.86-2.69l-8.24-1.49a2.32 2.32 0 0 0-2.69 1.86 2.32 2.32 0 0 0 1.86 2.69z" fill="#ffffff"/>
            <path d="M855.58 234.29a12.86 12.86 0 0 1-12.32-9.23l-12.45-42.34a12.86 12.86 0 0 1 8.7-16l73.63-21.66a12.86 12.86 0 0 1 16 8.7l12.46 42.34a12.89 12.89 0 0 1-8.71 16l-4.35 1.28 3.9 13.26a2.54 2.54 0 0 1-4 2.74c-.07 0-8.11-5.9-23.31-6.21a62.09 62.09 0 0 0-18.63 2.56l-27.26 8a13 13 0 0 1-3.66.56zM841 171.63a7.79 7.79 0 0 0-5.26 9.66l12.45 42.33a7.79 7.79 0 0 0 9.65 5.27l27.27-8a66.38 66.38 0 0 1 20.16-2.77 54.75 54.75 0 0 1 20.58 4.14l-2.33-7.94a4.55 4.55 0 0 1 3.07-5.64l4.87-1.43a7.78 7.78 0 0 0 5.27-9.65l-12.46-42.34a7.78 7.78 0 0 0-9.65-5.26z" fill="#ffffff"/>
            <path d="M844.6 183.29l71.48-21a2 2 0 0 0 1.34-2.46 2 2 0 0 0-2.46-1.34l-71.48 21a2 2 0 0 0-1.35 2.46 2 2 0 0 0 2.47 1.34z" fill="#ffffff"/>
            <path d="M892.78 179.18l26-7.66a2 2 0 0 0 1.34-2.46 2 2 0 0 0-2.46-1.34l-26 7.65a2 2 0 0 0-1.35 2.47 2 2 0 0 0 2.47 1.34z" fill="#ffffff"/>
            <path d="M874.73 184.49l11.11-3.27a2 2 0 0 0 1.34-2.46 2 2 0 0 0-2.46-1.35l-11.11 3.27a2 2 0 0 0-1.35 2.47 2 2 0 0 0 2.47 1.34z" fill="#ffffff"/>
            <path d="M847.32 192.55l20.32-6a2 2 0 0 0 1.34-2.46 2 2 0 0 0-2.46-1.34l-20.32 6a2 2 0 0 0-1.34 2.46 2 2 0 0 0 2.46 1.34z" fill="#ffffff"/>
            <path d="M909.75 184.25l11.78-3.46a2 2 0 0 0 1.35-2.47 2 2 0 0 0-2.47-1.34l-11.78 3.47a2 2 0 0 0-1.34 2.46 2 2 0 0 0 2.46 1.34z" fill="#ffffff"/>
            <path d="M865 197.42l36.26-10.67a2 2 0 0 0 1.34-2.46 2 2 0 0 0-2.46-1.34l-36.25 10.66a2 2 0 0 0-1.35 2.47 2 2 0 0 0 2.46 1.34z" fill="#ffffff"/>
            <path d="M891.28 199.75l33-9.7a2 2 0 0 0 1.34-2.46 2 2 0 0 0-2.46-1.34l-33 9.7a2 2 0 0 0-1.35 2.46 2 2 0 0 0 2.47 1.34z" fill="#ffffff"/>
            <path d="M867.72 206.68l15.81-4.68a2 2 0 0 0 1.35-2.46 2 2 0 0 0-2.47-1.34l-15.81 4.65a2 2 0 0 0-1.34 2.46 2 2 0 0 0 2.46 1.37z" fill="#ffffff"/>
            <path d="M850.05 201.82l6.89-2a2 2 0 0 0 1.34-2.46 2 2 0 0 0-2.46-1.35l-6.89 2a2 2 0 0 0-1.34 2.46 2 2 0 0 0 2.46 1.35z" fill="#ffffff"/>
            <path d="M982.35 683.52c4.39 5.22 8.5 10.66 13 15.79 1.21 1.38 4.15.74 4.09-1.35-.44-14.1-1.19-28.23 3.65-41.75.87-2.43-2.85-3.72-3.77-1.32-5.27 13.72-5.52 28.81-4.51 43.3l4.06-2c-4.71-5-9.72-9.6-14.45-14.54a1.38 1.38 0 0 0-2.08 1.82z" fill="#ffffff"/>
            <path d="M901 711.73c-7.58-4.21-18.37-6.78-27-5a18.43 18.43 0 0 0-6.71 2.73 1.66 1.66 0 0 0-2.49 2l.06.15-.08.09c-2.84 3.24-3.15 6-1 9.59a1.23 1.23 0 0 0 2.19-.88 5.52 5.52 0 0 1 1-4c2.93 6 6.33 11.92 9.59 17.77q3.14 5.63 6.2 11.29c1.87 3.46 3.44 7.38 6 10.41s5.09-.38 4.6-2.61a23.51 23.51 0 0 0-1.09-2.85c7.41-1.84 14-11.62 16-18.18 2.73-8.24.41-16.24-7.27-20.51zm1.35 21.19a23.53 23.53 0 0 1-6.15 7.82c-2.08 1.7-4.69 2.65-6.75 4.29-.65-1.09-1.31-2.18-1.9-3.25q-2.94-5.24-5.92-10.45a200.49 200.49 0 0 0-11.31-18.1c.24-.15.48-.29.71-.41a18.15 18.15 0 0 1 8.15-1.74 42.18 42.18 0 0 1 19.31 4.85c6.68 3.66 6.92 10.67 3.81 16.99z" fill="#ffffff"/>
            <path d="M935.22 714.89a11.64 11.64 0 0 0-16.53.71c-3.21 3.7-3.55 9.82.37 12.46a1.4 1.4 0 0 0-1.33 2.17c7.43 12.77 27.7-5.94 17.49-15.34zm-5.94 13.28c-2.41 2.54-6.86 3.25-9.34.41a7.29 7.29 0 0 0 1.65.58 1.67 1.67 0 0 0 1.27-2.93c-6.67-4.56 4.66-14 9.3-7.18 1.69 2.46-1.04 7.19-2.88 9.12z" fill="#ffffff"/>
            <path d="M949 707.34c-1.93-1.38-6-4.57-8.53-3.45-1.78.78-2.18 3.22-2.14 5.31-.68-.49-1.38-1-2.12-1.43-1.07-.66-2.76.57-1.74 1.69a73.15 73.15 0 0 1 5.89 7.37 37 37 0 0 0 3.23 5.21c2 2.77 6.2-.38 4.23-3.16a41.56 41.56 0 0 0-6.28-7.12c-.49-1.28-.9-2.93-.48-3.94.89-2.16 2.25-.88 3.57.12 3.78 2.85 5.69 6.79 8.18 10.66 1.38 2.14 4.4.12 3.68-2.07-1.24-3.86-4.22-6.88-7.49-9.19z" fill="#ffffff"/>
            <path d="M977.21 702.22c-2.92 1-5.33 3-8.24 4.07a9.75 9.75 0 0 1-4.5.47 58.76 58.76 0 0 0 4.34-7.32c1.15-2.33 2.19-4.78.42-7.11-4.05-5.27-11.52-.24-13.61 4.24a11.16 11.16 0 0 0 6.07 15.17c6.59 2.47 14.57-1.27 17.71-7.27.73-1.38-.89-2.72-2.19-2.25zm-18.45-1a6.39 6.39 0 0 1 2.47-5.61c1.61-1.62 3.21-1.32 4.82.9-.4 1-.83 1.91-1.27 2.86-1 2.14-2.15 4.24-3.31 6.31a5.86 5.86 0 0 1-2.71-4.44z" fill="#ffffff"/>
            <path d="M1130.15 605.1c-11.94 9.68-17.87 26.79-12.19 41.43 3.91 10.08 13.47 16.42 17.77 26.31 2.22 5.11 3.34 10.65 4.32 16.11a75.12 75.12 0 0 0 3.22 11.75 6 6 0 0 0-.79.87 2.16 2.16 0 0 0-.36.77 4.11 4.11 0 0 0-7.45 2c-.68 5 1.76 9.18 4.67 13.06 1.77 2.36 2.54 4.85 4 7.29a7 7 0 0 0 3.92 3.09c4 1.28 10.27 2.21 14.42 1.18s6.7-6 9.13-9.24c3.15-4.23 6.11-7.35 5.92-12.83-.12-3.64-1-6.21-4.75-7.23.75-10.3 1.72-21.2 6.94-30.27 5.45-9.47 14.86-15.73 17.64-26.78 4.07-16.16-5.71-33.3-19.61-41.36-14.26-8.32-33.95-6.52-46.8 3.85zm12.6 100.9a6 6 0 0 0 .14-1.15 1.75 1.75 0 0 0 .2.19c2.55 2 4.81 1.25 7.89 1a96.36 96.36 0 0 1 9.76-.35c1.87 0 8.54-.61 9.89.62s.94 3.06 0 4.57c-2.22 1.3-4.86 1.5-7.52 1.61a38.11 38.11 0 0 0-9.15 1.22 1 1 0 0 0-.37 1.7 18.45 18.45 0 0 0 11.46 2.46 21.22 21.22 0 0 1-3 3c-2.69 2.11-7.39 1.14-10.6.76-2.8-.34-3-.23-3.63-3.2a21.42 21.42 0 0 0-1.09-3.91c-1-2.47-4.63-5.6-3.98-8.52zm-6.75-98.61c14.18-10 34.43-7.75 46.18 4.83a30.45 30.45 0 0 1 8.45 21.68c-.33 9.45-4.94 16-10.84 23-10.32 12.2-13 26.35-14.16 41.68a92.79 92.79 0 0 0-10.1-.17c-3.09.07-6.91-.28-9.89.88a41.88 41.88 0 0 0 .47-12.3 58.51 58.51 0 0 0-3-13.05 46.93 46.93 0 0 0-6.67-12.56c-3.53-4.71-8.12-8.66-11.1-13.79-7.92-13.66-1.71-31.52 10.66-40.2z" fill="#ffffff"/>
            <path d="M1175.23 639.29a.48.48 0 0 1 .69.64c-3.56 6.73-5.26 14.54-9.57 20.84a1.11 1.11 0 0 1-2-.43c-1.59-8.52 4.43-16.25 10.88-21.05z" fill="#ffffff"/>
            <path d="M1161 637c1.3 7.41 1.82 16-1.36 23a1.51 1.51 0 0 1-2.75.14c-3.79-7.46-1.46-16.86 3.12-23.4a.56.56 0 0 1 .99.26z" fill="#ffffff"/>
            <path d="M1147 638.41c2.93 5.8 4.62 11.46 3.32 18-.3 1.48-2.61 2.43-3.29.61-2.12-5.65-2.93-11.35-4.19-17.21-.54-2.55 3.04-3.6 4.16-1.4z" fill="#ffffff"/>
            <path d="M1173.37 592.39c2.27-10 9.7-19.55 15.34-27.93 1.49-2.22 5.49-.3 4.29 2.23-4.44 9.34-8.88 20.67-16.51 27.87-1.58 1.49-3.49-.46-3.12-2.17z" fill="#ffffff"/>
            <path d="M1154.59 583c-.33-4.54-1.1-8.92-.49-13.53a116.6 116.6 0 0 1 2.44-13.66c1-4 6.66-2.21 6.71 1.42a103 103 0 0 1-.86 13.58c-.54 4.42-2.23 8.36-3.56 12.52-.63 1.98-4.08 1.89-4.24-.33z" fill="#ffffff"/>
            <path d="M1127.51 559.39c4.7 2.69 6.61 8.53 8.54 13.27 2.08 5.09 4.15 10.81 3.16 16.37-.4 2.2-3.1 3.43-4.72 1.51-3.61-4.27-5-10-6.54-15.26-1.44-4.93-3.81-10-2.59-15.21.23-.98 1.44-1.07 2.15-.68z" fill="#ffffff"/>
            <path d="M602.56 587.26a2.44 2.44 0 0 0 3.55 2.72c2.45-1.47 4.16-3.82 6.28-5.72a33 33 0 0 1 8.09-5.4c2.85-1.31 7.11-2.09 6.25 2.64a21 21 0 0 1-3.62 8.15c-6.65 9.41-23.26 14.64-33.9 9.81-9.22-4.18-15-15.63-11.59-25.4 3.46-10.06 14.6-15.57 24.78-14.54 1.87.19 2.11-2.67.43-3.19-10.44-3.18-21.73 2-27.53 11-5.94 9.22-4.3 21.11 2.42 29.43C586 607 599 607.9 610.87 604c6.06-2 11.69-5.11 15.73-10.15 3.27-4.09 6.75-10.66 5.63-16.11-3.05-14.74-27.37 1.52-29.67 9.52z" fill="#ffffff"/>
            <path d="M637.67 568.4c-.46-.85-.86-1.69-1.23-2.57-.59-1.39-1.16-1.79.11-2.77s2.64.27 4.11.86c2.27.91 3.4-2.9 1-3.71s-4.29-2.3-6.78-1.72a4 4 0 0 0-3.18 4.23v.46a1.57 1.57 0 0 0-.76 2.26c1.22 2.23 2.55 4.4 3.93 6.55a29.22 29.22 0 0 0 5.15 7.79c1.65 1.71 4.83-.59 3.38-2.61-1.9-2.92-4.05-5.66-5.73-8.77z" fill="#ffffff"/>
            <path d="M670.3 562.71c-3.21 1.45-6.76 4.07-10.34 4.17a5.4 5.4 0 0 1-5.31-2.82 1 1 0 0 0 .39.08c6-.16 14.8-3.4 13.49-11a6.06 6.06 0 0 0-5.31-5.22c-3.62-.36-6.67 2.38-9 4.82-4.57 4.76-7.18 12.68-.71 17.17s14.9 1.09 19.11-4.91c1.08-1.5-.95-2.91-2.32-2.29zM655.21 558a15.58 15.58 0 0 1 3.7-3.94c1.91-1.51 6-2.1 5.18 1.44s-6.76 5.33-9.62 6.55a1 1 0 0 0-.32.23 6.85 6.85 0 0 1 1.06-4.28z" fill="#ffffff"/>
            <path d="M701.5 546.76c-2.07 4.16-7.32-2.69-8.64-4-2.32-2.26-4.73-4.44-7.08-6.66a1.69 1.69 0 0 0-1.51-.49c-1.61-2-7.29 1.46-8.57 2.88a13.39 13.39 0 0 0-.46 16.91c3.93 5.18 10.85 5.82 14.87.36a9.66 9.66 0 0 0 2-6.79 12.7 12.7 0 0 0 4.68 3.56c3.56 1.33 8.49-1.28 6.82-5.52-.36-.79-1.61-1.2-2.11-.25zm-14 2.8c-.69 3.9-4.15 6.9-7.95 4.47a9.25 9.25 0 0 1-3.67-10.42 10.34 10.34 0 0 1 2.4-4c.07-.07 3-2.28 4.47-2.47a1.77 1.77 0 0 0 .45 1.52l.94 1.13c2.18 2.72 4.03 6.31 3.41 9.77z" fill="#ffffff"/>
            <path d="M724.17 533.89c-4.11.62-6.58 7.06-11.25 5.08-2.14-.91-3.07-3.64-4.11-5.62-1.34-2.53-2.66-5.07-4-7.62l-3.35-6.54a21.11 21.11 0 0 0 5.81-4.72 1.21 1.21 0 0 0-1.46-1.89c-2.12.94-4.19 1.95-6.25 3-.64-1.23-1.29-2.45-2-3.67-2.72-5-6.12-9.67-8.81-14.68-.14-.26-.58-.08-.48.2 2.4 6.75 4.19 13.59 6.87 20.27a67.39 67.39 0 0 1-6.66 2.74c-1.39.47-1.28 3 .37 2.74a37.93 37.93 0 0 0 7.83-1.82c2.5 5.77 5.14 11.52 8 17.13 2.26 4.53 5.87 7.77 11.26 6.88 4.3-.72 10.52-5 10.16-10a1.58 1.58 0 0 0-1.93-1.48z" fill="#ffffff"/>
            <path d="M722.32 514c1.65 1.22 3.71-1.48 2.19-2.84a65.9 65.9 0 0 1-13.58-17.79c-3.36-6.21-8.73-15.2-6.32-22.55.86-2.65 2.9-4.73 5.78-4.05 2.32.55 4 2.71 5.09 4.7 2 3.62 2.79 8.05 3.38 12.1 1.14 7.76.63 16.14 3.69 23.48a.79.79 0 0 0 1.53-.42c-.84-5.93-1.82-11.82-2.57-17.76a65.5 65.5 0 0 0-3.29-15.18c-2.11-5.59-8.33-13.2-14.68-7.57-6.8 6-2.57 17.68.53 24.33 4.26 9.14 10.07 17.55 18.25 23.55z" fill="#ffffff"/>
            <path d="M735.76 523.45a4.28 4.28 0 0 0-4.33 6.09 1.45 1.45 0 0 0 1 .81 14.46 14.46 0 0 0 1 1.39 4.42 4.42 0 0 0 4.3 1.74 4.48 4.48 0 0 0 3.32-3.25c.89-3.32-2.05-6.53-5.29-6.78zm.67 4.77l-.36-.44a1.92 1.92 0 0 1 .36.44z" fill="#ffffff"/>
            <path d="M1345.94 631.72c-1.48-2-2.86 6.8-3.08 7.8-.89 4.08-1.66 8.2-2.51 12.29q-2.44 11.93-5.44 23.71c-4 15.91-9.71 31.34-14.3 47.07-.31 1 1.24 1.91 1.79.86 9.43-18 15.5-37.22 19.69-57.09 2-9.66 3.87-19.39 5.28-29.17.16-1.1 1.71-6.53-1-6.57-.78 0-1.31.41-1.08 1.21a.33.33 0 0 0 .38.25h.19c.17 0 .19-.23.11-.34z" fill="#ffffff"/>
            <path d="M1382 651.77c-5 4.45-7.91 11.81-10.79 17.71-3.06 6.27-6.16 12.5-9.75 18.49a224.44 224.44 0 0 1-25.4 35.17c-1.34 1.49.62 3.78 2.14 2.35 10.66-10 20-20.46 27.58-33 3.74-6.18 7-12.61 10.12-19.11s7.31-12.49 10.16-19c1-2.39-2.31-4.2-4.06-2.64z" fill="#ffffff"/>
            <path d="M1403.3 684.85a449.42 449.42 0 0 1-59 53.64c-1.29 1 .24 3.18 1.64 2.35a245.76 245.76 0 0 0 60.92-52c2.18-2.56-1.25-6.55-3.61-4z" fill="#ffffff"/>
            <path d="M1119.61 402.88c-.4-5.13-5.2-8-9.94-8.7-5.61-.78-11.24 1.73-15.2 5.62-9 8.86-8.74 23.76-.66 33.15 7 8.14 24 13.39 32.12 3.72 3.22-3.86 2.89-12.07-1.62-15.07-5-3.36-14.08-2-17.94 2.23a1.23 1.23 0 0 0 .89 2.06c3.33.22 10.69-1.71 13.46.28 4.87 3.5.68 8.81-3.71 9.89-8.06 2-17.09-2.29-21.21-9.3s-3.84-16.07 1.44-22.4 14.14-7.66 19.43-.65c.85 1.13 3.07.89 2.94-.83z" fill="#ffffff"/>
            <path d="M1144.37 422.49c-6.45 2.74-5.07 11.36 0 14.87 6.65 4.58 16 .93 19.23-6s-.05-15.81-7.73-18.12c-7.12-2.13-15.67 3.54-13.39 11.4a1.34 1.34 0 0 0 2.55 0c1.39-4.28 5.7-8.12 10.27-5.72 3.92 2.06 4.67 6.84 2.75 10.56-1.77 3.43-6.48 5.78-10.17 3.86-3.34-1.73-3.78-6.72-2.63-9.91a.75.75 0 0 0-.92-.9z" fill="#ffffff"/>
            <path d="M1169.84 423.14c-8.34 10.2 19.86 24.6 24.46 9.78 2.29-7.36-5-12.87-11.22-14.58-5.4-1.48-17.31 1.55-13.9 9.48a1.17 1.17 0 0 0 2.12.25c2.58-4.05 5.39-7 10.69-5.58 3.5.92 10.53 6 6.15 10.08-2.66 2.47-7.68 1-10.48-.58-3.57-2.08-4.23-4.78-5.7-8.32-.33-.79-1.45-1.35-2.12-.53z" fill="#ffffff"/>
            <path d="M1220.25 374.76c-1.5 9.78-.87 20.27-.17 30.12.35 4.93.9 9.85 1.53 14.76.39 3.05.08 9.6 2.66 11.73a3.34 3.34 0 0 0 4.55-.05c5-4.27-2.6-11.37-6.38-13.3-5.48-2.79-12-1.81-15.34 3.66-3 4.94-1.43 10.84 4.09 13.08 6 2.41 12.91-.66 16.51-5.69.66-.92-.45-2-1.39-1.77-4.18 1-13.75 7.42-16.14.52-1.32-3.81 2.39-7.1 6.16-6.77a7.89 7.89 0 0 1 4.72 2.3c.61.56 2.8 3.8 3.17 3.48l4.54-.06c-.34-.27-.67-5.43-.8-6.2q-.51-3.26-1-6.53c-.58-4.3-1-8.62-1.51-12.93-.93-8.62-.91-17.39-2.12-26-.23-1.57-2.82-2.33-3.12-.38z" fill="#ffffff"/>
            <path d="M1273.5 420.15c1.86 6.84 4.52 18.07-1.86 23.42-3 2.51-7.18 3-10.93 2.42-3.28-.55-8.31-1.89-10.71-4.22a1.62 1.62 0 0 0-2.51.36c-2.13 4.5 5 6.8 8.07 8.09 5.26 2.2 11.5 3.14 16.83.63a16.11 16.11 0 0 0 8.73-12.87c.81-7.09-2.7-12.71-6.56-18.29a.59.59 0 0 0-1.06.46z" fill="#ffffff"/>
            <path d="M1270.33 414.05c3.74 0 3.68-5.85-.07-5.81s-3.67 5.86.07 5.81z" fill="#ffffff"/>
            <path d="M1282.22 423.56c2.4 4.58 1.73 11.94 7.8 13.79 6.53 2 14.21-5.67 14.63-11.92.46-6.74-8.07-12.88-14.19-13.28-4.22-.28-13.94 4-10.25 9.57a1.73 1.73 0 0 0 2.32.58c3.09-1.79 3.61-5.41 8.15-4.67a11.08 11.08 0 0 1 5.79 3.4c2.33 2.39 2.65 4.51.59 7.17-1.1 1.43-3.51 4.18-5.61 3.36-1.25-.49-1.8-2.33-2.26-3.45-1.08-2.63-1.9-4.89-4.1-6.83a1.86 1.86 0 0 0-2.87 2.28z" fill="#ffffff"/>
            <path d="M1311.22 373.15c-2.06 11.08-1.89 22.26-1.88 33.49a110.33 110.33 0 0 0 .69 15c.46 3.36.71 7.94 4.58 8.88a1.14 1.14 0 0 0 1.24-.53c2.32-3.09-.12-7.88-.55-11.33-.62-4.94-.6-10-.74-14.93-.27-10.29-.55-20.49-2.72-30.57a.32.32 0 0 0-.62 0z" fill="#ffffff"/>
            <path d="M1313.55 412.28c2.2-.67 6.8.26 8.76 1.54a7.54 7.54 0 0 1 2.86 8.38 8.79 8.79 0 0 1-6.07 6c-2.39.74-4.81.15-7.09 1.24a2.94 2.94 0 0 0-1 4c2.91 4 9.27 2 12.86-.12a14.7 14.7 0 0 0 7.33-12.72 12.56 12.56 0 0 0-6.89-11.4 10 10 0 0 0-6-1c-2.6.44-3.45 1.72-5.08 3.6a.32.32 0 0 0 .32.52z" fill="#ffffff"/>
            <path d="M1338.14 376.48c.24 15.79-.22 31 3.2 46.53a.85.85 0 0 0 1.63 0c2.83-16 .37-31-2.86-46.81-.23-1.12-2-.82-2 .3z" fill="#ffffff"/>
            <path d="M1344.63 437c4.62-.06 4.54-7.24-.09-7.19s-4.54 7.24.09 7.19z" fill="#ffffff"/>
            <path d="M880.91 287.94c-7.12-4.45-17.41.94-18 9.25-.32 4.64 2.34 9.59 7.09 10.71a9.3 9.3 0 0 0 1.68.2 11.59 11.59 0 0 0 9.74-1c6.82-4.19 6.01-15.1-.51-19.16z" fill="#ffffff"/>
            <path d="M1453 818.06c-10.75 1.87-16 16-9.37 24.56 3.72 4.76 10.59 7.25 16.15 4.2a10.59 10.59 0 0 0 1.8-1.26 15.09 15.09 0 0 0 8.58-9.4c2.93-9.97-7.32-19.82-17.16-18.1z" fill="#ffffff"/>
            <path d="M376.85 298.83c-7.12-4.44-17.41.94-18 9.25-.32 4.64 2.34 9.6 7.09 10.71a7.8 7.8 0 0 0 1.68.2 11.62 11.62 0 0 0 9.74-1c6.82-4.18 6.01-15.08-.51-19.16z" fill="#ffffff"/>
            <path d="M1474.72 885.26c-10.75 1.87-16 16-9.38 24.55 3.72 4.77 10.59 7.26 16.15 4.21a10.59 10.59 0 0 0 1.8-1.26 15.09 15.09 0 0 0 8.58-9.4c2.94-9.97-7.31-19.82-17.15-18.1z" fill="#ffffff"/>
            <path d="M939.69 291.93c-3.82-6.88-14.32-.93-12.26 6a7.12 7.12 0 0 0 7.64 4.82 5.83 5.83 0 0 0 4.71-3.93 7.48 7.48 0 0 0-.09-6.89z" fill="#ffffff"/>
            <path d="M323.86 253.34c-3.82-6.88-14.32-.93-12.26 6a7.14 7.14 0 0 0 7.65 4.82 5.83 5.83 0 0 0 4.71-3.93 7.45 7.45 0 0 0-.1-6.89z" fill="#ffffff"/>
            <path d="M914.86 337.07c-1.05-4-5.35-6.78-9.28-5.12l-.47.13c-3.58 1.26-5.24 5.62-4 9.07s5.32 5.13 8.84 4.22a6.74 6.74 0 0 0 4.91-8.3z" fill="#ffffff"/>
            <path d="M1510.16 850.33c-4.46-2.93-11.06-1.92-13.43 3.1a6.1 6.1 0 0 0-.34.54c-2.37 4.32-.2 10 4 12.25s9.6.35 12.22-3.59a8.77 8.77 0 0 0-2.45-12.3z" fill="#ffffff"/>
            <path d="M396.28 226c-1-4-5.34-6.77-9.28-5.12a4.19 4.19 0 0 0-.47.14c-3.57 1.25-5.24 5.61-4 9.07s5.32 5.13 8.84 4.21a6.72 6.72 0 0 0 4.91-8.3z" fill="#ffffff"/>
            <path d="M1636.89 595.5a34.06 34.06 0 0 0-34-23.07 35.21 35.21 0 0 0-22 9.35c-4.44 4.05-8.87 9.92-9.73 16.13a24.52 24.52 0 0 0-2.09 7.74 28.2 28.2 0 0 0 1 12.48 40.27 40.27 0 0 0 2.93 7c-2.48 1.87-4.36 5.67-5.65 7.94-2.62 4.62-5.77 8.92-8.57 13.43-.86 1.77 1.44 3.77 2.87 2.55.83.9 1.65.72 3.14.7 2.06 0 4.13 0 6.19.07.53 3.31 1.14 6.59 1.86 9.86a1.56 1.56 0 0 0 2 1 83.32 83.32 0 0 0 9.79-3.54c.3 1.62.6 3.23.93 4.83.43 2.1.41 3.83 2.15 5.16a.91.91 0 0 0 1.4-.26.94.94 0 0 1 .06-.15c1.72-.17 2.76-1.8 3.8-3.16 1.68-2.2 3.21-4.52 4.81-6.78 1.46-2.06 3-4.1 4.33-6.22 1.09-1.7 2.57-3.4 2.72-5.4a31.87 31.87 0 0 0 20.32-7.38c11.93-9.99 16.77-27.54 11.74-42.28zm-38.24 52.69c-1.48 2.06-2.81 4.21-4.18 6.33-1.49 2.32-3.1 4.61-4.5 7-.28.47-.58 1-.85 1.44-.07-.22-.13-.46-.2-.71-.67-2.48-1.28-5-1.87-7.47a1.43 1.43 0 0 0-2.12-.74 51.27 51.27 0 0 1-9.39 3.3q-.88-4.55-1.52-9.13a1.68 1.68 0 0 0-1.72-1.51c-2.56-.11-5.1-.11-7.67 0h-1.18c2.58-3.66 5-7.43 7.82-10.92a40.25 40.25 0 0 0 4.48-6.2 39.46 39.46 0 0 0 7.88 8.37 34.12 34.12 0 0 0 17.32 7 37 37 0 0 0-2.3 3.24zm26.35-16.82a27.64 27.64 0 0 1-34.31 5.16c-6.72-3.95-11.77-10.86-14.55-18.06s-1.23-14.45-.88-22a1.21 1.21 0 0 0-1.11-1.24c1.93-4.08 5.3-7.75 8.38-10.58a31.8 31.8 0 0 1 17.4-8.21 30.23 30.23 0 0 1 31.62 17.65c5.33 12.34 2.51 27.47-6.55 37.28z" fill="#ffffff"/>
            <path d="M1620.09 608a38.59 38.59 0 0 0-3.71-3.13c.71-4.65 1.52-9.27 2.58-13.87a1.52 1.52 0 0 0-2.29-1.56c-3.8 2.5-8.22 4.73-11.67 7.77a28.28 28.28 0 0 0-4.61-2.54 21.13 21.13 0 0 0-6.1-2.42 1.82 1.82 0 0 0-2.06 2.32c.86 3.42 1.59 6.83 2.25 10.29a2.52 2.52 0 0 0 .24.67c-2.57 3.24-5.76 5.7-8.91 8.36-1.39 1.17-1.06 4.24 1.28 3.86 2.72-.44 5.44-.83 8.16-1.22a20.93 20.93 0 0 0 5.42-1.13 21.06 21.06 0 0 0 1 5.53c.64 2.65 1.29 5.3 1.88 8 .51 2.28 3.48 1.49 4.06-.24 1.32-3.91 2.39-7.8 4.45-11.39a2.46 2.46 0 0 0 .71 0c3.46-.68 6.9-1.27 10.4-1.74a1.81 1.81 0 0 0 1.38-2.76 19.8 19.8 0 0 0-4.46-4.8zm-8.09 5.4a1.85 1.85 0 0 0-1.68 1.26 1.33 1.33 0 0 0-.64.68c-1.08 2.34-2.36 4.59-3.58 6.87-.24-.82-.5-1.65-.79-2.47-.7-2-1.49-4.52-3.21-5.92a.7.7 0 0 0-.24-.13.79.79 0 0 0-.22-.18c-2-1.07-4.46-.89-6.64-.79-.89 0-1.78.11-2.66.19 1.66-2 3.27-4 5-5.85a1.34 1.34 0 0 0 .4-.85 1.86 1.86 0 0 0 .56-2.06c-.71-2.47-1.37-4.94-2-7.43 2.84 1.25 5.53 3.14 8.61 3.37a1.26 1.26 0 0 0 1.18-.55 56.11 56.11 0 0 0 8.89-5.38c-.88 3.44-1.76 6.88-2.58 10.33a1.81 1.81 0 0 0 1.36 2.21c1.44 2.25 3.88 3.85 5.84 5.76-2.47.36-5.02.67-7.6.94z" fill="#ffffff"/>
            <path d="M1567.2 580.32c-4.93-4.22-12.67-5.88-18.92-6.88s-14.1-1.88-20.35.26a1.09 1.09 0 0 0 .29 2.13c3.16.31 6.37 0 9.54.08a74.47 74.47 0 0 1 10.11 1 73.37 73.37 0 0 1 8.79 2.08c3.17 1 6.35 2.35 9.61 2.91.84.17 1.73-.9.93-1.58z" fill="#ffffff"/>
            <path d="M1588.55 556.39c-.49-2.61-1.89-5.16-2.72-7.71s-1.61-4.89-2.21-7.41a65.14 65.14 0 0 1-1.34-8.08c-.23-2.07 0-4.34-1.47-5.93a1.11 1.11 0 0 0-1.53 0c-1.64 1.62-1.32 4.29-1.24 6.45a51.93 51.93 0 0 0 1.18 8.77c1.06 5 3 11.73 6.78 15.39a1.54 1.54 0 0 0 2.55-1.48z" fill="#ffffff"/>
            <path d="M1633.5 528a59.31 59.31 0 0 0-7.3 12.76c-1.83 4.06-4.43 9.13-4.32 13.65a1.86 1.86 0 0 0 3.43.93c2.62-3.45 3.82-8.66 5.44-12.66 1.78-4.38 3.93-8.62 5.47-13.09.51-1.54-1.7-2.92-2.72-1.59z" fill="#ffffff"/>
            <path d="M1667.09 563.62c-2.54.93-5.13 1.58-7.65 2.61s-4.69 2-7 3.12c-2.49 1.15-4.94 2.3-7.34 3.62-2.17 1.19-4.55 2.13-6.37 3.84-1 1-.31 3.23 1.25 3 4.74-.59 9.74-3.43 14-5.48 2.46-1.18 4.93-2.33 7.34-3.61s4.6-2.88 7-4.26c1.46-.84.49-3.46-1.23-2.84z" fill="#ffffff"/>
            <path d="M1681.26 617a120.51 120.51 0 0 1-15.2-2.89 72.47 72.47 0 0 1-6.87-2.39c-2.47-1-4.94-2.65-7.53-3.21a1.79 1.79 0 0 0-1.72 3c1.64 2.07 4.54 3.38 6.86 4.58a45.38 45.38 0 0 0 7.88 3 39 39 0 0 0 16.58 1.44c1.74-.21 1.74-3.25 0-3.53z" fill="#ffffff"/>
            <path d="M1656.26 672.77a53.53 53.53 0 0 0-8.36-15.71c-3-4.07-7.37-9.93-12.39-11.53a1.71 1.71 0 0 0-1.91 2.48c1.15 2.22 3.35 4 5.06 5.8 1.89 2 3.7 4.05 5.43 6.19a123.82 123.82 0 0 1 9.27 14c.9 1.5 3.46.53 2.9-1.23z" fill="#ffffff"/>
            <path d="M1818.51 340.76c-.07-7.78-7.93-15.36-15.72-15.78 1.81-2.52 3.49-5.14 5.16-7.65 1.51-2.26 2.91-4.56 4.21-6.95.62-1.15 1.2-2.33 1.85-3.46l.21-.34c1.26 3.46 5.22 6.59 8 8.39a15.22 15.22 0 0 0 11.32 2.28c4.73-1.05 3.11-8.58-1.53-7.33-2.53.68-4.92-.29-7.2-1.38-3-1.44-5.52-4.28-8.62-5.41a1.68 1.68 0 0 0-1-.05.72.72 0 0 0-.26 0c-2.06.17-3.43 2.71-4.56 4.22-1.71 2.28-3.46 4.53-5.2 6.78-3.52 4.57-7.65 8.49-11.33 12.87-2.09 2.48 2.11 6.15 4.33 3.77 4.1-.13 7.86 1 10.67 4.29s3.18 7.31.46 10.67c-2.46 3-6.61 3.82-10.32 3.49a14.1 14.1 0 0 1-5.93-1.85 7.93 7.93 0 0 1-2.32-2.11c-.65-.91-.9-2.14-1.65-3a2.64 2.64 0 0 0-4.5.94c-.81 2.19.43 5 1.71 6.75 3 4.13 8.61 6.15 13.56 6.61 9.2.82 18.76-5.99 18.66-15.75z" fill="#ffffff"/>
            <path d="M1846.23 357.87c-1.34-2.25-4-3.7-6.26-5.1 1.43-2.12 3.14-4.33 3.37-6.9a.24.24 0 0 0-.34-.22c-2.27 1.24-3.61 3.69-5 5.85-2.09-1.43-4.55-3.15-7-3.21a.85.85 0 0 0-.79 1.21c1 2.17 3.52 3.73 5.65 5.07a17.35 17.35 0 0 0-3 5.7.63.63 0 0 0 1 .66 17.25 17.25 0 0 0 4-5c2.16 1.52 4.53 3.32 7.1 3.65a1.2 1.2 0 0 0 1.27-1.71z" fill="#ffffff"/>
            <path d="M1894.54 358.75a3.06 3.06 0 0 0-2-3.39c-1.5-.71-3.12-1.05-4.59-1.86a23.57 23.57 0 0 1-4.11-2.89c-2.57-2.27-4.5-5.14-7-7.47s-5.63-4.24-9.11-4.19c-3.2 0-6 1.47-6.94 4.63a2.19 2.19 0 0 0 3 2.6c2.19-.95 4.42-1.34 6.61-.11 2.53 1.41 4.27 3.92 6.19 6a38.78 38.78 0 0 0 7.61 6.62l-.57.1c-2.07.36-4.16.63-6.2 1.13-4.55 1.12-8.4 3.63-12.08 6.45-1.09.83-2.16 1.68-3.22 2.55l-.28-.19c-.43-.28-5.61-4.15-5.89-1.94-.22 1.68 2 3.08 3.84 4.12-5.91 5.19-11.07 11.19-14 18.58-1.19 3 3.66 4.58 4.77 1.53 2.54-7 7.49-12.75 13-17.72 2 1.41 4 2.9 6.27 3.25a.89.89 0 0 0 .84-1.28c-1-1.59-2.52-2.42-4.08-3.44l-.76-.5c.94-.79 1.88-1.56 2.83-2.31a26 26 0 0 1 11.45-5.52c2-.37 3.94-.62 5.89-1 1.62-.35 3.43-1.31 5.09-1.28h.36a3 3 0 0 0 3.08-2.47z" fill="#ffffff"/>
            <path d="M1936.12 339.62c-6.46-17.84-20.37-32.15-35.78-42.7-16.78-11.48-36.55-20.83-57.3-20-18.45.7-36.47 7.83-52 17.58-29.59 18.62-51.84 49.18-59.28 83.45a77.85 77.85 0 0 0-1.64 13.08.7.7 0 0 0 .3.58c-.07.57-.13 1.15-.15 1.74 0 1.37 2.15 2 2.51.55 2.18-9.07 9.91-15.39 18.81-17.47 9.77-2.28 20 .78 29 4.5 20.59 8.5 39.43 20.74 60.29 28.68 16.81 6.4 34.84 9.68 52.73 6.42 15.87-2.89 31.09-11.25 39.35-25.52 8.96-15.42 9.12-34.44 3.16-50.89zm-7.65 47.6c-8.32 14.28-23.8 21.65-39.74 23.61-18.44 2.26-36.29-2.65-53.09-9.95-11-4.8-21.61-10.55-32.37-15.93-10.06-5-20.37-10.38-31.34-13.11-9.23-2.3-19.4-2.63-28 1.94a27.3 27.3 0 0 0-10.43 9.47c3.69-14.23 8.75-28 16.46-40.63a135.89 135.89 0 0 1 34.22-37.88c14.23-10.69 31.06-18.86 48.69-21.85 20.79-3.54 40.06 3 57.75 13.74 15.88 9.61 30.52 22.66 38.45 39.75 7.26 15.7 8.32 35.54-.6 50.84z" fill="#ffffff"/>
            <path d="M1837.65 512.92c1.24-4.55 2.57-9.08 3.92-13.6 1.29-4.3 2.59-8.6 4-12.87s3.47-8.88 3.67-13.36a1.27 1.27 0 0 0-2.25-.91c-2.66 3.35-4 7.91-5.44 11.88-1.71 4.64-3.38 9.3-4.9 14-1.45 4.49-2.82 9-4.14 13.52-1.15 4-3.32 8.73-2.55 12.91a2 2 0 0 0 3.68.66c2.49-3.3 2.94-8.31 4.01-12.23z" fill="#ffffff"/>
            <path d="M1860.84 464.22c-5.68-3.24-14.95-1.51-21.07-.46-6.81 1.17-13.93 3.26-19.7 7.14a1.2 1.2 0 0 0 .9 2.13c6.72-1.5 13.23-3.53 20.1-4.45a91.19 91.19 0 0 1 10.57-.68c3.09-.06 6.28.23 9.22-.78 1.45-.5 1.03-2.3-.02-2.9z" fill="#ffffff"/>
            <path d="M1860.16 512.15a9.92 9.92 0 0 0-10.51.9 1.79 1.79 0 0 0-1.07.36c-5.73 4.11-7.24 12.85-2.57 18.35 4.51 5.31 13.07 5.62 17.29-.14 4.45-6.07 3.8-15.62-3.14-19.47zm-2.71 17.8c-3 1.53-7.1-.34-8.43-3.23a8 8 0 0 1-.58-4.51 1.3 1.3 0 0 0 1.41-.85c1.28-4.05 5.74-6.46 9.32-3.24 3.41 3.07 2.33 9.76-1.72 11.88z" fill="#ffffff"/>
            <path d="M1902 541.23a3.06 3.06 0 0 0 .27-.87c2.66-17.26 6.73-34.25 9.52-51.47a1.47 1.47 0 0 0-2.81-.72c-4.82 13-7.85 26.69-10.32 40.38a11.88 11.88 0 0 0-3-2.4c-4.76-2.66-10.86-1.63-13.8 3.17-6.84 11.22 12.28 19.33 20.6 14.79 1.11-.67 1.13-2.78-.46-2.88zm-16.11-7c-.71-3.88 4.08-5.1 6.77-3.7 3.38 1.76 4.2 5.68 4 9.16a3 3 0 0 0 .09.91c-4.69-.79-10.22-2.6-10.9-6.35z" fill="#ffffff"/>
            <path d="M1924.73 538a8 8 0 0 0-7.89 1 .78.78 0 0 0-1 .08c-4.31 3.71-6.59 10.67-3 15.67 4 5.54 12.4 5.17 16.27-.22s2.11-13.93-4.38-16.53zm-1.63 15.23a5.24 5.24 0 0 1-7.61-3.6 8.75 8.75 0 0 1-.14-1.77 1.58 1.58 0 0 0 2.08-.82c.54-1.46 1-2.73 2.48-3.53a3.84 3.84 0 0 1 4.59.76c2.58 2.48 1.71 7.27-1.4 8.92z" fill="#ffffff"/>
            <path d="M2000.93 567.77a1.74 1.74 0 0 0-3.33-.85 30.84 30.84 0 0 0-1.85 4.86c-4.46 1.25-11.39 3.8-15.83 1.65-5.15-2.5-3.38-10-2.23-14.33.62-2.31 1.33-4.6 2.16-6.85a1.4 1.4 0 0 0 1.44-.16 42.2 42.2 0 0 0 16.4-23.57 2.29 2.29 0 0 0-3-2.92c-7 2.3-11.59 8.66-15.21 14.77-4.18 7-7.77 15.08-8.75 23.27-.76 6.28 1 13.11 7.5 15.46a16.16 16.16 0 0 0 16.47-3.72c-.73 2.55-1.53 4.83-1.22 7.5a1.79 1.79 0 0 0 3.16.82c1.58-2.18 2-4.6 2.63-7.17a47.78 47.78 0 0 0 1.66-8.76zm-9.06-35.35a41.28 41.28 0 0 1-10.27 15.45 64.76 64.76 0 0 1 3.39-6.64 32.28 32.28 0 0 1 6.88-8.81z" fill="#ffffff"/>
            <path d="M2001.25 558.64a1.76 1.76 0 0 0 1.93-1.53 7.52 7.52 0 0 0 0-1.5 4.29 4.29 0 0 0-.55-1.47 1.32 1.32 0 0 0-2.08 0 4.71 4.71 0 0 0-.81 2.57 1.76 1.76 0 0 0 1.51 1.93z" fill="#ffffff"/>
            <path d="M2024.31 581.88c-2.41-1.89-5-3.55-7.54-5.32-1.18-.83-3.23-1.76-4.1-2.91-1.13-.57-1.25-1.39-.36-2.47q1.59-1.6 2.91.6c-1.68 1.19-.06 3.9 1.81 3.09 3.86-1.67 3.09-7.21-.75-8.47s-9.73 2.1-9 6.56c.32 2 2 3.48 3.45 4.69 3 2.46 6.3 4.71 9.42 7.07 1.18.88 3.69 2.36 3.18 4.2s-3.83 2.14-5.42 2.12a11.26 11.26 0 0 1-6.36-1.62 1.37 1.37 0 0 0 .06-1.12c-.8-1.84-2-2.48-4-2.7a2.49 2.49 0 0 0-2.74 2.81c1.75 8.8 17.48 10.92 22.32 3.78 2.58-3.88.36-7.76-2.88-10.31z" fill="#ffffff"/>
            <path d="M2054.58 597.73c-4 1.22-8.85 4.58-11.14-1.15-1.47-3.7.21-7.82 1.73-11.49a20.45 20.45 0 0 0 7.33.69 1.94 1.94 0 0 0 .89-3.41 19.67 19.67 0 0 0-6.2-2.62 139.86 139.86 0 0 0 7-27.28c.27-1.92-2.68-2.72-3.35-.85-2.56 7.19-5 14.41-7.8 21.53-.67 1.71-1.45 3.43-2.24 5.18a78.72 78.72 0 0 0-9.53-1.39 1.85 1.85 0 0 0-.9 3.53 79.72 79.72 0 0 0 8.25 2.88 30.22 30.22 0 0 0-2.33 9.22c-.32 5.3 2.17 11.27 7.48 13.16 4.94 1.76 10.86-1.2 12.84-6a1.6 1.6 0 0 0-2.03-2z" fill="#ffffff"/>
            <path d="M2081.72 603.4c1.14-3.83 1.16-8 1.45-11.94 3.91-7.25 7.48-14.72 10.94-22.14 1.59-3.4 12.14-22.48 1.9-22.38-4 0-7.8 3.71-9.89 6.82-3 4.46-4.14 9.76-5.21 14.94a167.59 167.59 0 0 0-2.87 17.81c-.23 2.38-.51 4.91-.58 7.43a37.75 37.75 0 0 0-1.29 7.14c-.05.62.84 1.11 1.22.49l.56-.94a18 18 0 0 0 .81 2.8 1.62 1.62 0 0 0 2.96-.03zm13-51c1.11-.66 1.52-1.34 1.84.25.18.91-.66 2.3-1 3.1-.81 2.17-1.76 4.28-2.76 6.36-2.11 4.4-4.48 8.65-6.81 12.94l-.94 1.73v-.18c1.35-8.05 1.86-19.6 9.68-24.23z" fill="#ffffff"/>
            <path d="M2080.32 617.05a4.32 4.32 0 0 0 .69-1.69 2.73 2.73 0 0 0-.54-2 3 3 0 0 0-1.82-1 3.3 3.3 0 0 0-2.4.62 4.14 4.14 0 0 0-1.31 1.67 3.93 3.93 0 0 0 0 3.35 2.73 2.73 0 0 0 1.77 1.51 2.62 2.62 0 0 0 3.1-1.55 2.37 2.37 0 0 1 .2-.47l-.38.66c.15-.23.28-.48.41-.72s.19-.24.28-.38z" fill="#ffffff"/>
            <path d="M1848 574.75c8.57-.86 16.23-4.91 25.12-4.46 10 .51 14.93 6.69 19.82 14.66 3.78 6.17 8.12 11.51 15.26 13.8 8.08 2.6 16.7.89 25 1.45a46.47 46.47 0 0 1 25.71 9.91c6.4 5.07 11.07 12.65 19.11 15.41 6 2 11.93.6 17.73-1.15 8.24-2.48 15.37-4.35 23.49-.28 14.56 7.31 23.4 23.75 40.79 25.3a1.32 1.32 0 0 0 .3-2.63c-15.44-3.68-24.67-18.34-38.11-25.64a31.5 31.5 0 0 0-18.69-3.68c-7.35.79-15.76 4.66-23.14 2.23-8.32-2.74-13.61-12.35-20.77-17.25a53.42 53.42 0 0 0-22.56-8.78c-9.48-1.33-20.74 1.84-29.45-2.93-7.29-4-9.67-12.94-15-18.87-5.56-6.2-13.28-8.86-21.51-8.69s-18.34 2.29-25.1 6.88c-2.32 1.57-.48 5 2 4.72z" fill="#ffffff"/>
            <path d="M2040.32 670.39c-2.38-7.56-8.1-14.69-14-19.92s-12.91-8.29-20.68-7.59c-7.57.68-14.33 4.8-21.87 5.57a26.11 26.11 0 0 1-22.41-9.23c-4.67-5.51-7.87-12.3-13.65-16.84s-13-5.23-20.15-5c-7.64.26-15.65 1.55-22.84-1.81-8.27-3.87-13.81-11.65-20.13-17.92-6-5.91-13.2-11.54-22-11.69-6.75-.12-13.55 2.88-16.16 9.39-.52 1.31 1.44 2.55 2.23 1.27 3.83-6.22 11.89-8.08 18.62-5.91 8.11 2.62 13.59 9.6 19.09 15.67 5 5.57 10.53 11.24 17.62 14.14 6.39 2.61 13.31 2.27 20.06 1.91s14.39-.8 20.22 3.55c5.65 4.21 8.7 11 13.18 16.23a31.45 31.45 0 0 0 17.55 10.57c6.94 1.49 13.49 0 20.09-2.17 8.64-2.89 16.66-4.61 24.78.81 7.86 5.26 11.8 13.71 18.25 20.27a1.3 1.3 0 0 0 2.2-1.3z" fill="#ffffff"/>
            <path d="M1883.58 783c-9.93-5.14-23.06-4.1-31.16 4-5.57 5.55-7 13.77-12.34 19.51a52.87 52.87 0 0 1-9.47 7.58 54.27 54.27 0 0 0-6.89 5.57 4.28 4.28 0 0 0-.81-.27 1.63 1.63 0 0 0-.62 0 3 3 0 0 0-3.49-4.38c-3.53 1-5.6 3.84-7.34 6.91-1 1.87-2.49 3.11-3.68 4.81a5.11 5.11 0 0 0-.92 3.51c.33 3.06 1.53 7.48 3.43 9.95s5.93 2.72 8.81 3.38c3.74.87 6.68 1.93 10.27.21 2.39-1.14 3.84-2.5 3.44-5.27 7.08-2.5 14.62-5 22.18-4.2 7.9.87 14.82 5.32 23 4 12-2 20.52-13.52 21.84-25.13 1.34-12.02-5.61-24.64-16.25-30.18zM1820 820.86a4.68 4.68 0 0 0 .8-.24 1.07 1.07 0 0 0-.07.19c-.57 2.27.57 3.57 1.65 5.53s2.16 4.22 3.09 6.4c.53 1.25 2.89 5.52 2.47 6.77s-1.77 1.52-3 1.34a11.44 11.44 0 0 1-3.27-4.54 28.17 28.17 0 0 0-3.48-5.74c-.34-.42-1.16-.38-1.24.25a13.38 13.38 0 0 0 1.7 8.35 15.53 15.53 0 0 1-2.84-1.11c-2.19-1.17-2.91-4.58-3.59-6.84-.59-2-.72-2.06 1.07-3.35a16.33 16.33 0 0 0 2.29-1.86c1.29-1.41 2.32-4.74 4.42-5.15zm63.73-33.28a26.14 26.14 0 0 1 10.27 32.18 22.19 22.19 0 0 1-12 12c-6.39 2.54-12.1 1.37-18.47-.53-11.13-3.31-21.33-.94-31.89 2.73a67.22 67.22 0 0 0-2.83-6.78c-.95-2-1.83-4.69-3.47-6.34a30.31 30.31 0 0 0 8.33-3.27 43 43 0 0 0 7.83-5.78 34.08 34.08 0 0 0 6.42-8.11c2.11-3.72 3.4-7.93 6-11.41 6.74-9.27 20.45-10.38 29.83-4.69z" fill="#ffffff"/>
            <path d="M1873.94 823a.34.34 0 0 1-.22.64c-5.53-.41-11.22.73-16.67-.3a.81.81 0 0 1-.3-1.44c5.25-3.52 12.12-1.77 17.19 1.1z" fill="#ffffff"/>
            <path d="M1871.33 812.88c-4.55 3-10.16 5.89-15.75 5.81a1.1 1.1 0 0 1-.9-1.79c3.87-4.7 10.81-5.89 16.5-4.74a.4.4 0 0 1 .15.72z" fill="#ffffff"/>
            <path d="M1866.3 804c-3 3.65-6.29 6.43-11 7.45-1.08.23-2.38-1-1.37-2 3.15-3 6.7-5.25 10.25-7.8 1.51-1.14 3.26.93 2.12 2.35z" fill="#ffffff"/>
            <path d="M1911.76 757.69a1.28 1.28 0 0 0-2-1.49c-3.29 3-5.87 7.11-8.56 10.69-2.56 3.42-5.44 6.89-7.14 10.83a1.13 1.13 0 0 0 1.79 1.32c3.27-2.8 5.73-6.56 8.24-10 2.6-3.66 5.72-7.3 7.67-11.35z" fill="#ffffff"/>
            <path d="M1931 781.19c-4 .67-8.07 4-11.46 6.15a113.8 113.8 0 0 0-10.74 7.48c-1.18.95.38 2.5 1.56 1.94a112.51 112.51 0 0 0 12.12-6.9c3.25-2.07 7.44-4 9.71-7.21.58-.81-.43-1.58-1.19-1.46z" fill="#ffffff"/>
            <path d="M1939.68 823.61c-2.7-2.32-7.32-2.63-10.7-3.51l-12.45-3.24c-1.94-.5-2.62 2.48-.7 3l12.36 3.6c3.37 1 7.41 3 10.93 2.41a1.38 1.38 0 0 0 .56-2.26z" fill="#ffffff"/>
            <path d="M936.85 524.33c-9.71 10.27-24.53 11.65-35 20.87-1.36 1.2.43 3.57 1.95 2.54 11.32-7.72 27.94-8.41 36.91-19.54 2.17-2.68-1.39-6.49-3.86-3.87z" fill="#ffffff"/>
            <path d="M916.17 520.88a3.74 3.74 0 0 0-2.51-1 3.7 3.7 0 0 0-2.52 1 2.76 2.76 0 0 0-.73 1.15 2.58 2.58 0 0 0-.31 1.37 3.57 3.57 0 0 0 1 2.51 3.7 3.7 0 0 0 2.52 1 3.65 3.65 0 0 0 2.51-1 2.66 2.66 0 0 0 .73-1.14 2.61 2.61 0 0 0 .31-1.37 3.61 3.61 0 0 0-1-2.52z" fill="#ffffff"/>
            <path d="M932.54 549.77a2.39 2.39 0 0 0-.32-1.19 3.54 3.54 0 0 0-1-1.51c-.32-.24-.64-.48-1-.73l-1.12-.47a3.51 3.51 0 0 0-1.87-.09 2.36 2.36 0 0 0-1.19.32 3.64 3.64 0 0 0-1.51 1l-.73.95-.48 1.13a3.6 3.6 0 0 0-.08 1.87 2.35 2.35 0 0 0 .32 1.18 3.48 3.48 0 0 0 1 1.51l.95.73 1.12.48a4.82 4.82 0 0 0 2.5 0 3.24 3.24 0 0 0 .76-.11 3.39 3.39 0 0 0 2.36-2.37 3.9 3.9 0 0 0 .12-.75 3.5 3.5 0 0 0 .17-1.95z" fill="#ffffff"/>
            <path d="M888.68 550.66a158 158 0 0 0-14.38-16.41 1.66 1.66 0 0 0-.64-.4 4.78 4.78 0 0 0-1.42-1c-2.7-1.22-5.15.59-6.59 2.85-4.06 6.35-5.72 16.83.08 22.6 5.12 5.08 13 3.38 15.74-3.19a12.54 12.54 0 0 0 .93-6.33c2 2.57 3.9 5.2 5.68 7.92 2.19 3.33 4.63 7.49 3.92 11.64-.51 2.91-3.48 6-6.58 5.15-.3-.73-.64-1.44-1-2.18a1.8 1.8 0 0 0-3.26.43c-.44 2.36-1.11 4.76 1.21 6.24a7.87 7.87 0 0 0 6.68.59 11.71 11.71 0 0 0 7.79-10.92c-.01-6.5-4.41-12.07-8.16-16.99zm-9.86-1.66c.3 3.69-1.83 8.65-6 8.88-5.39.3-7.76-6.08-7.66-10.4a23 23 0 0 1 1.35-6.75 17 17 0 0 1 1.5-3.61 5.26 5.26 0 0 1 3.55-1.91 1.58 1.58 0 0 0 .42 1.44c3.1 3.35 6.45 7.46 6.84 12.35z" fill="#ffffff"/>
            <path d="M974.4 511.72c-1.37-5-5.48-10.46-11.12-10.63a9 9 0 0 0-5.06 1.37c-1.11-5.65-4-11.09-10.07-10.86a7.31 7.31 0 0 0-4.15 13.17.74.74 0 0 0 1-1c-3.95-4.46 2.22-11.27 6.4-6.55 2.37 2.68 2.94 7 2.91 10.75a7.79 7.79 0 0 0-.09 2.37c0 .2 0 .39.07.59.48 2.6 4.15 1.73 4.34-.59a23.7 23.7 0 0 0 .08-2.58c1.05-2.5 5.34-2.88 7.48-1.41 2.86 2 4.22 6 4.35 9.27s-1 7-4.16 8.53a6.94 6.94 0 0 1-4.32.63 9.69 9.69 0 0 1-1.7-.57 1.11 1.11 0 0 0-1.69-.84v.27h-.52a2 2 0 0 0-2 2.49c1.37 5.76 10.37 4.22 13.8 1.6 4.93-3.73 5.98-10.46 4.45-16.01z" fill="#ffffff"/>
            <path d="M817.63 651.19c-14.18-6.41-29-10.16-44.2-13.47a183.69 183.69 0 0 1-22.8-6.19c-7.16-2.55-13.88-7.07-21.38-8.41a1.42 1.42 0 0 0-1.59 2.06c3.89 6.48 11.43 9.35 18.24 11.84a144.63 144.63 0 0 0 22.82 5.83c16.19 3.07 33 3.79 48.78 8.66.18.06.32-.24.13-.32z" fill="#ffffff"/>
            <path d="M710.53 609.31A98.87 98.87 0 0 0 701.8 592c-2.65-4.34-5.22-10.7-10.18-12.71-.74-.3-1.43.45-1.47 1.12-.3 5.4 4.82 10.77 7.66 15A94.81 94.81 0 0 0 709.3 610c.49.53 1.5 0 1.23-.69z" fill="#ffffff"/>
            <path d="M658.16 464.93a.78.78 0 0 0-1.29-.34c-4.5 5.64-4.68 13.16-5.26 20.09a77.83 77.83 0 0 0 1.52 23.73c.15.64 1.26.7 1.36 0 1-7.25 1.67-14.57 2.39-21.85s3.12-14.56 1.28-21.63z" fill="#ffffff"/>
            <path d="M679.69 394.91c-5.72 4.78-9.05 13.21-11.92 19.93a68.22 68.22 0 0 0-5.68 20.82.46.46 0 0 0 .85.23c3.68-6.48 6.69-13.35 10.25-19.89 3.35-6.16 8.29-12.12 10.5-18.77.81-2.46-2.32-3.73-4-2.32z" fill="#ffffff"/>
            <path d="M773.18 228.37a29.7 29.7 0 0 0-11.94 7.07 142.29 142.29 0 0 0-11.51 11.66c-6.31 7.22-13.87 15.91-15.72 25.58a.32.32 0 0 0 .53.31c7.36-6.63 12.34-15.85 19.12-23.11a123.74 123.74 0 0 1 10.67-10.19c1.88-1.58 3.94-3 5.75-4.64s2.66-3.5 4.1-5.39c.47-.66-.31-1.52-1-1.29z" fill="#ffffff"/>
            <path d="M817.48 205a21.33 21.33 0 0 0-8.55 2.47c-2 1-5.3 2.73-5.79 5.11a.75.75 0 0 0 .71.94c2.21 0 4.43-1.94 6.46-2.77a52.06 52.06 0 0 1 7.67-2.09c2.02-.54 1.62-3.77-.5-3.66z" fill="#ffffff"/>
            <path d="M1371.07 410.9c-1.09-.35-1.56 1.14-.73 1.73 9.13 6.49 3.11 17.76-3.64 23.06-7.26 5.7-15.8 10.12-24.07 14.15a230.21 230.21 0 0 1-56 18.66c-41.74 8.3-84.78 6-126.57-.71-20.55-3.28-41.15-7.18-61.16-13a228.79 228.79 0 0 1-29.53-10.61c-7.79-3.47-16.73-7.68-21.35-15.23-11.48-18.76 20.57-33.33 33.88-38.58 16.9-6.65 34.94-9.84 52.84-12.42 22-3.17 44.07-6.09 66.26-6.89a219.2 219.2 0 0 1 67.07 7.95c.83.23 1.39-1 .6-1.42-19.4-9.95-41.67-12-63.18-11.82-22.2.24-44.38 3.49-66.33 6.57-20.19 2.82-40.5 6.4-59.4 14.32a111.09 111.09 0 0 0-25.51 14.64c-6.41 5-12.8 11.8-12.22 20.54 1.18 17.87 25.74 25.94 39.48 31 21.64 8 44.38 12.68 67 16.75 45.86 8.25 93.26 12.15 139.35 3.39 23.82-4.52 47.19-12.39 68.27-24.48 8.32-4.77 18.85-10.37 22.12-20.11 2.28-6.84.21-15.11-7.18-17.49z" fill="#ffffff"/>
            <path d="M1165.41 293.07c-2.72-8.77-4.92-17.88-8.42-26.37-.6-1.44-3.27-1.5-3 .41 1.09 9.27 4 18.38 6.64 27.29s5.45 18.08 10 26.27c.75 1.36 2.63.38 2.38-1-1.7-9.05-4.89-17.84-7.6-26.6z" fill="#ffffff"/>
            <path d="M1196.46 261.79a1.07 1.07 0 0 0-2 0c-2.6 9.37-1.65 20.39-2 30.06-.38 10.48-.81 21.32.43 31.75.11 1 1.62 1.39 1.86.25 2.14-10.05 2.57-20.75 2.75-31 .12-9.92 1.5-21.39-1.04-31.06z" fill="#ffffff"/>
            <path d="M1224.47 271c-4 7-6.58 14.85-8.65 22.6-2 7.59-3.9 16-3.6 23.88a1.52 1.52 0 0 0 3 .4c2.54-7.37 3.94-15.26 6-22.79s4.79-15 6.77-22.6a1.94 1.94 0 0 0-3.52-1.49z" fill="#ffffff"/>
            <path d="M1621 410.5c-5.74 3.76-10.45 8.47-15.48 13.12-5.24 4.85-11.37 9.25-15.81 14.87-.31.39 0 1.16.55.94 6.38-2.39 11.92-7.07 17.08-11.43 5.75-4.85 11.08-9.76 14.82-16.34.38-.66-.45-1.66-1.16-1.16z" fill="#ffffff"/>
            <path d="M1668.8 340.23c-6.84 2.91-11.67 8-16.13 13.79-4.85 6.31-7.07 12.57-9.46 20a.21.21 0 0 0 .39.16c6.47-12.59 17.3-22.05 26.05-32.88a.71.71 0 0 0-.85-1.07z" fill="#ffffff"/>
            <path d="M1734.24 309c-4-3.73-10.7-3.13-15.76-2.44-5.93.81-10.86 2.72-15.18 6.85a.28.28 0 0 0 .28.47c5.19-1.23 10.66-2.67 16-2.89 4.65-.19 9.44 1.58 14 .53a1.52 1.52 0 0 0 .66-2.52z" fill="#ffffff"/>
            <path d="M1938 410.2a.74.74 0 0 0-1.08.83c2.49 6.11 5.68 11.92 7.71 18.22 1.9 5.94 2.55 12.23 5.27 17.89.36.75 1.36.43 1.61-.21 4.63-11.93-3.82-29.48-13.51-36.73z" fill="#ffffff"/>
            <path d="M1970.89 480.22a120.3 120.3 0 0 0-11.12 10.89c-1.28 1.36-4.14 5.5-6.84 7.59a58.45 58.45 0 0 0 3.92-15.42c.71-6.32 1.42-14-1.39-19.89a1.1 1.1 0 0 0-2 .26c-1.36 5.75-.54 12-1.24 17.88a144.5 144.5 0 0 1-3.49 17.79c-1.28-1.33-2.21-5.67-2.87-7.31s-1.41-3.47-2.13-5.19c-1.74-4.16-3.37-8.34-5.48-12.32a1.28 1.28 0 0 0-2.32 1c1.63 6.6 4.15 13 6.47 19.41 1.24 3.4 2.3 9.47 6.56 10.49 4.63 1.1 7.89-5 10.29-7.89 4.4-5.29 9-10.64 12.63-16.51.41-.67-.46-1.21-.99-.78z" fill="#ffffff"/>
            <path d="M1861.16 767.55c-1.27-5.53-4.15-10.77-6.39-16-2.13-4.94-3.91-11.25-7.83-15.06a1 1 0 0 0-1.62.67c.25 5.09 3.32 9.93 5.44 14.46 2.59 5.54 4.83 11.76 8.4 16.73a1.1 1.1 0 0 0 2-.8z" fill="#ffffff"/>
            <path d="M1849.38 686.26c-.44-1.22-2.35-1.78-3-.4-2.16 4.45-1.59 9.77-1.73 14.61a87.84 87.84 0 0 0 1 15.9c.09.61 1 .54 1.15 0a82.2 82.2 0 0 0 2.6-14.91c.35-4.89 1.66-10.46-.02-15.2z" fill="#ffffff"/>
            <path d="M1880.3 639.37c-4.27-1-8 4-10.31 6.92-3.46 4.44-5.38 9-7.26 14.27-.28.78.87 1.17 1.29.54a78 78 0 0 1 10.08-11.64c2.45-2.45 7-5.21 7-9a1.14 1.14 0 0 0-.8-1.09z" fill="#ffffff"/>
            <path d="M1015.68 621c-14.65-10.23-34.16-5.72-50-1.1a218.92 218.92 0 0 0-49.42 21.68 286.62 286.62 0 0 0-43.68 31.8c-12.85 11.29-25 24.31-31.89 40.2-5.75 13.29-7 28.13-2.11 41.91 4.64 13.15 14.68 24.06 28.63 27.11 20.53 4.5 42-6.79 60.08-15.3a427.58 427.58 0 0 0 58.59-34.1c.36-.25 0-.84-.35-.59a471.86 471.86 0 0 1-46.94 26c-15.83 7.79-32.6 16.13-50 19.78-15.84 3.33-32-.16-41.34-14.15-7.4-11-9.72-25.45-6.8-38.37 3.56-15.72 13.38-29.13 24.52-40.42a255.8 255.8 0 0 1 38-31.11 239 239 0 0 1 44.25-24.07c14.92-6.09 32.16-12.24 48.47-11.64 18.66.68 31.33 15.65 32.29 33.79s-10.28 34.64-22.63 47c-1.32 1.32.64 3.21 2 2 12.64-10.81 22.73-25.28 24.51-42.18 1.56-14.15-4.19-29.84-16.18-38.24z" fill="#ffffff"/>
            <path d="M948.17 977.79c-4.09-1.24-8.67-1-12.91-1.28a160.2 160.2 0 0 1-16.33-2c-9.89-1.66-19.45-4.41-29.37-5.79a1.34 1.34 0 0 0-1 2.44 44.18 44.18 0 0 0 13.59 6.47 118.93 118.93 0 0 0 16 3c9.1 1.1 21.71 2.59 30.27-1.38.64-.25.39-1.25-.25-1.46z" fill="#ffffff"/>
            <path d="M859.11 957.66c-2.74-3.42-5.09-7.07-7.66-10.62-2.13-2.94-3.78-6.84-7.18-8.49a2 2 0 0 0-3 1.7c-.44 4.21 3 8.11 5.53 11.14a42.73 42.73 0 0 0 10.53 8.53c1.52.92 2.74-1.06 1.78-2.26z" fill="#ffffff"/>
            <path d="M776.16 833.52c-2.86-1.8-2.52-7.37-2.72-10.27-.29-4.12-.49-8.29-.59-12.41-.19-7.56 1.16-15.14-.84-22.53a1.81 1.81 0 0 0-3.27-.43c-4.77 8.4-3.5 19.41-2.19 28.63.78 5.5 1.75 17.81 8.74 19.07a1.13 1.13 0 0 0 .87-2.06z" fill="#ffffff"/>
            <path d="M786 716.2c-3.72 1.76-5.72 6.63-7.63 10.12a82.89 82.89 0 0 0-6 13.68c-2.85 8.64-5.54 18.94-3.37 28a.25.25 0 0 0 .47 0c2.77-8.57 3.52-17.54 6.74-26a97.21 97.21 0 0 1 6.15-13.31c1.9-3.37 5.4-6.84 5.95-10.69a1.57 1.57 0 0 0-2.31-1.8z" fill="#ffffff"/>
            <path d="M855.24 666.53a84.65 84.65 0 0 1-14.08-7.72 76.67 76.67 0 0 0-6.16-4.71c-2-1.37-4.61 1.89-2.65 3.44l.45.34a82 82 0 0 1 10.07 8.72 86.09 86.09 0 0 0-22.77 10.18 93.71 93.71 0 0 0-10.73 8.07c-3 2.64-6.86 5.54-8.2 9.44-.16.5.39 1.13.91.91 3.17-1.32 5.39-4.05 8-6.21a90 90 0 0 1 12.19-8.48A98 98 0 0 1 847.76 670a2.13 2.13 0 0 0 1.58-1.6l1.28.63c-6.38 6.86-13 13.42-19.08 20.6-.55.66.16 1.82 1 1.27 8.83-5.87 16.05-13.23 23.15-21.07.8-.83.88-2.73-.45-3.3z" fill="#ffffff"/>
            <path d="M1531.19 986c-3.78-.28-6.63 1.78-9.89 3.43-3.59 1.81-7.22 3.53-10.91 5.13-7.25 3.15-16.14 5.45-22.47 10.26a.57.57 0 0 0 .28 1c8 .78 17.14-3 24.49-5.87q5.55-2.19 11-4.66c3.58-1.62 7.21-2.83 9.21-6.37a2 2 0 0 0-1.71-2.92z" fill="#ffffff"/>
            <path d="M1585 930.05a1.87 1.87 0 0 0-1.76-1.34c-4.23-.25-6 4-8.39 7-2.56 3.26-5.08 6.55-7.6 9.84-5.35 7-12.27 14.14-15.52 22.39a1.63 1.63 0 0 0 2.37 1.83c7.28-5 12.68-13.49 18.25-20.28q4.29-5.22 8.49-10.49c2.25-2.88 5.28-5.09 4.16-8.95z" fill="#ffffff"/>
            <path d="M1604 869.85c-2.38 4.26-3.16 9.46-4.22 14.19a48 48 0 0 0-1.49 14.19.21.21 0 0 0 .39.11 49 49 0 0 0 6.65-12.77c1.75-4.57 3.92-9.29 4.3-14.2.25-3.04-4.22-4.04-5.63-1.52z" fill="#ffffff"/>
            <path d="M1670.47 741.51c-6.08.42-11.5 9-14.82 13.58-4.43 6.2-8.65 13.39-9.91 21a.64.64 0 0 0 1.16.48c4.49-6 8-12.55 12.91-18.29 2.12-2.5 4.36-4.92 6.69-7.23s5.08-3.93 5.81-7.15a1.92 1.92 0 0 0-1.84-2.39z" fill="#ffffff"/>
            <path d="M1695.11 692.2c-.81-.54-1.18-.43-2.14-.28a2.77 2.77 0 0 0-2 1.94c-1.5 4.36-2.48 8.85-4.19 13.14-1.85 4.64-4.18 9.07-6.28 13.59a.88.88 0 0 0 1.38 1.06c7.07-6.55 12.87-16.75 14.46-26.31a2.92 2.92 0 0 0-1.23-3.14z" fill="#ffffff"/>
            <path d="M1704.35 647.88a42.29 42.29 0 0 0-12.18-7c-3.08-1.25-8.11-4.66-11.43-2.65-1.66 1-2.13 2.83-2.18 4.75a.77.77 0 0 0-.45.64 106.09 106.09 0 0 0 2.13 22.54c.6 3.15 5.92 2.48 5.64-.76-.16-1.84-1.27-9.92-1.7-15.75a43.56 43.56 0 0 1 3.93 5.42c2.8 5 4.35 10.44 5.83 15.91.39 1.41 2.18.94 2.35-.32a33.27 33.27 0 0 0-2.93-17.76 40.77 40.77 0 0 0-4.36-7.9c2 1 4 2.17 4.81 2.48a34 34 0 0 0 9.73 2.22 1.1 1.1 0 0 0 .81-1.82z" fill="#ffffff"/>
            <path d="M1946.46 280.89a9.17 9.17 0 0 0-13.8-7.92l-1.69 1a10.42 10.42 0 1 0 14.26 14.26 10.26 10.26 0 0 0 1.42-5.26c-.06-.68-.13-1.38-.19-2.08z" fill="#ffffff"/>
            <path d="M1973 320.69a10.14 10.14 0 0 0-2.63-4.52l-2.07-1.6a10.21 10.21 0 0 0-5.17-1.4 7.76 7.76 0 0 0-3.94.88 9.26 9.26 0 0 0-5.41 5.41 7.77 7.77 0 0 0-.88 4c.12.9.24 1.81.37 2.72a10.11 10.11 0 0 0 2.63 4.51l2.07 1.6a10.1 10.1 0 0 0 5.16 1.4 7.77 7.77 0 0 0 4-.88 9.26 9.26 0 0 0 5.41-5.41 7.73 7.73 0 0 0 .88-3.94c-.2-.96-.32-1.87-.42-2.77z" fill="#ffffff"/>
            <path d="M1984 284.49a3.71 3.71 0 0 0-.5-1.84 7.13 7.13 0 0 0-3.85-3.84 5.39 5.39 0 0 0-2.8-.63l-1.94.26-1.73.73-1.48 1.14-1.14 1.47c-.24.58-.48 1.16-.73 1.74a5.51 5.51 0 0 0-.13 2.9 3.61 3.61 0 0 0 .5 1.84 5.42 5.42 0 0 0 1.5 2.34l.24.24a7.69 7.69 0 0 0 4.91 2l1.85-.25a6.9 6.9 0 0 0 3.06-1.79l.23-.24 1.14-1.47.74-1.74a5.61 5.61 0 0 0 .13-2.86z" fill="#ffffff"/>
            <path d="M679.62 780.67a9.55 9.55 0 0 0 4.91-1.1 11.52 11.52 0 0 0 6.74-6.74 9.65 9.65 0 0 0 1.1-4.91c-.15-1.13-.31-2.26-.46-3.39a12.7 12.7 0 0 0-3.28-5.63l-2.58-2a12.74 12.74 0 0 0-6.43-1.74 13.11 13.11 0 0 0-12.75 12.75l.45 3.39a12.76 12.76 0 0 0 3.28 5.62l2.58 2a12.78 12.78 0 0 0 6.44 1.74z" fill="#ffffff"/>
            <path d="M647.62 738.86a6.79 6.79 0 0 0 3.5-.78 8.16 8.16 0 0 0 4.81-4.81 6.79 6.79 0 0 0 .78-3.5c-.11-.81-.21-1.62-.32-2.42a9.1 9.1 0 0 0-2.34-4 9.43 9.43 0 0 0-6.43-2.67 7 7 0 0 0-3.51.78 6.84 6.84 0 0 0-2.92 1.89 6.67 6.67 0 0 0-1.88 2.92 6.94 6.94 0 0 0-.79 3.51l.33 2.41a9.1 9.1 0 0 0 2.34 4 9.45 9.45 0 0 0 6.43 2.66z" fill="#ffffff"/>
            <path d="M694.39 725.71a8.51 8.51 0 0 0 5.83-2.42 6.23 6.23 0 0 0 1.71-2.65 6.34 6.34 0 0 0 .71-3.18 8.37 8.37 0 0 0-2.42-5.84 8.27 8.27 0 0 0-11.67 0 6.24 6.24 0 0 0-1.7 2.66 6.1 6.1 0 0 0-.71 3.18 8.31 8.31 0 0 0 2.41 5.83 8.6 8.6 0 0 0 5.84 2.42z" fill="#ffffff"/>
            <path d="M1584.65 303a8.17 8.17 0 0 0-2.08-3.57l-1.64-1.27a8 8 0 0 0-4.08-1.1 6.09 6.09 0 0 0-3.12.7 7.26 7.26 0 0 0-4.27 4.27 6.11 6.11 0 0 0-.7 3.12l.29 2.15a8.07 8.07 0 0 0 2.08 3.57l1.64 1.27a8 8 0 0 0 4.08 1.1 6.11 6.11 0 0 0 3.12-.7 7.26 7.26 0 0 0 4.27-4.27 6.11 6.11 0 0 0 .7-3.12c-.1-.72-.19-1.43-.29-2.15z" fill="#ffffff"/>
            <path d="M1531.31 300.88c-15 0-15 23.31 0 23.31s15.02-23.31 0-23.31z" fill="#ffffff"/>
            <path d="M1553.46 268.34c-9.36 0-9.37 14.54 0 14.54s9.38-14.54 0-14.54z" fill="#ffffff"/>
            <path style="mix-blend-mode:multiply" fill="#6b6b6b" opacity=".17" d="M1901.41 1852.25c0 16.994-303.9 30.77-678.78 30.77s-678.78-13.776-678.78-30.77 303.9-30.77 678.78-30.77 678.78 13.776 678.78 30.77z"/>
            <path d="M1088.5 1576.27l-19.29 49.43-88.45 226.55H952s47.23-166 69.24-243.4c6.43-22.66 10.71-37.74 11-38.89l27 3z" fill="#cc9281"/>
            <path style="mix-blend-mode:multiply" opacity=".44" fill="#cc9281" d="M1088.5 1576.27l-19.29 49.43-88.45 226.54h-8.88l87.31-279.26 29.31 3.29z"/>
            <path d="M1032.2 1570l56.3 6.31-19.29 49.43a382.45 382.45 0 0 1-48-16.85c6.41-22.7 10.69-37.78 10.99-38.89z" style="mix-blend-mode:multiply" opacity=".44" fill="#cc9281"/>
            <path d="M1265.1 1852.25h-27.92l-27.87-206.94-10.84-80.54 3.23.45 52.89 7.25c0 1.69 1.14 31.73 2.63 71.54 3.12 82.91 7.88 208.24 7.88 208.24z" fill="#cc9281"/>
            <path style="mix-blend-mode:multiply" opacity=".44" fill="#cc9281" d="M1246.8 1852.24h-9.62l-27.87-206.93-10.84-80.54 3.23.45 23.19 40.27.38 4.35 21.53 242.4z"/>
            <path d="M1254.59 1572.47c0 1.69 1.14 31.73 2.63 71.54a606.746 606.746 0 0 1-47.91 1.3l-10.84-80.54z" style="mix-blend-mode:multiply" opacity=".44" fill="#cc9281"/>
            <path d="M1496 1852.25h-28.8l-89-227.88-18.77-48.1 25-2.81 31.27-3.5c.31 1.16 4.72 16.73 11.33 40l68.97 242.29z" fill="#cc9281"/>
            <path d="M1475.65 1852.25h-8.47l-89-227.88-18.77-48.1 25-2.81c15.91 49.75 72.17 220.82 91.24 278.79z" style="mix-blend-mode:multiply" opacity=".44" fill="#cc9281"/>
            <path d="M1427.07 1610q-25 8.31-48.86 14.41l-18.77-48.1 56.3-6.31c.31 1.12 4.72 16.69 11.33 40z" style="mix-blend-mode:multiply" opacity=".44" fill="#cc9281"/>
            <path d="M1500 1337.75a356.41 356.41 0 0 1-8.93 41.41c-13.95 49.74-20.63 99.24-75 131.83-10.46 6.28-24.06 10.7-34.65 16.66-20.77 11.72-43.36 20.3-66.36 26.61-69.08 18.94-146.66 27.2-216.34 7-21-6.09-39.24-17-54.9-31-22.52-20.12-39.82-46.64-52.76-74.43a404 404 0 0 1-15.33-38.22c-3.75-10.77-7.16-21.68-10.38-32.65-3.16-10.71-6.13-21.47-9.1-32.23-13.34-48.54-26.56-98.1-24.47-148.43 3.39-81.91 50-155.42 122.54-192.24 32.55-16.51 69-24.64 105-29.18 39.15-4.93 79.46-8.2 118.86-4.93a232.78 232.78 0 0 1 77.63 20.57 252.7 252.7 0 0 1 87.71 67c38.45 45.76 54 111.57 59.39 169.92a419.34 419.34 0 0 1-2.91 102.31z" fill="#ee4439"/>
            <path d="M1500 1337.75a356.41 356.41 0 0 1-8.93 41.41c-13.95 49.74-13.54 93.31-53.66 125.94-9.46 7.7-45.37 16.59-56 22.55l-337.6 2.66c-22.52-20.12-39.82-46.64-52.76-74.43a404 404 0 0 1-15.33-38.22l3.59-28s47.59 41.19 252.37 28.63 252.93-76.42 259.56-85.86c2.05-2.79 5.26.01 8.76 5.32z" style="mix-blend-mode:multiply" opacity=".36" fill="#f46d36"/>
            <path d="M1452 1467.8c-1.4 2.19-2.83 4.37-4.28 6.5-9.19 13.49-19.55 26.13-31.59 36.69-15.93 14-34.48 24.12-53.48 32.59-68.76 30.64-144.85 40.35-218.92 32.69-14.68-1.52-29.37-3.72-43.56-8.1-36.12-11.15-68.22-36.83-88.58-70.85a129.33 129.33 0 0 1-6.45-12.25c-.94-2-1.83-4-2.7-6.11-.94-2.3 55.4-22.85 225.47-22.24 163 .6 207.42-1.27 222.33 9.62a17.4 17.4 0 0 1 1.76 1.46z" fill="#ee4439"/>
            <path d="M1450.23 1466.31a33.94 33.94 0 0 0-2.52 2.84c-9.24 11.9-50.48 53-209.79 61.16s-216-34.71-217.69-31.24l-1.69 3.33-13.4-17.33c-.94-2-1.83-4-2.7-6.11-.94-2.3 55.4-22.85 225.47-22.24 163.02.57 207.41-1.3 222.32 9.59z" fill="#e02d28"/>
            <path d="M929.94 1502.4s-51.71-93.67-15.24-132.73 60.86-13.42 76.31 40.4 92.3 165.28 233.88 158.33c174.8-8.59 231-81.55 256.77-166.66s31.33-100 63-100 56.68 100.36-42 216.18-308.19 113.68-372.34 102-147.14-31.83-200.38-117.52z" fill="#f95955"/>
            <path d="M1241.32 1456.48a42.74 42.74 0 0 1-6.5 8.82 48.77 48.77 0 0 1-3.86 3.6c-13.58 11.4-34.07 17.06-58.93 35.43a19 19 0 0 0-7 10.33 32.89 32.89 0 0 0-1.21 9.15c-.14 26.09 22.43 67.16 37.32 91.38 7.36 11.92 12.86 19.81 12.86 19.81s-8.72-5.32-22-14.07c-23.89-15.77-62.55-42.73-91.54-69.88-22.13-20.72-38.63-41.56-38.66-57.64-.06-32.42 37.71-57.27 63.11-70.32a228.16 228.16 0 0 1 22.57-10.18h57.37l39 10 5.44 1.39s3.97 10.63-7.97 32.18z" fill="#3da6c0"/>
            <path d="M1230 1465.32s38.25 156.63 60.18 179.56 49.15-170.29 42-201.47c-4.31-18.41-102.18 21.91-102.18 21.91z" fill="#3da6c0"/>
            <path d="M1283.81 1561.93c-22.55-.8-48.06-77.52-52.85-93-.37-1.18-.7-2.38-1-3.58-5-20-1.29-41.48-1.29-41.48s6.06-.51 15.16-1c23.76-1.34 68.28-2.66 79.87 5.08 2.73 1.83 5.17 5.13 7 9.36 8.74 20.5-15.62 125.74-46.89 124.62z" fill="#3da6c0"/>
            <path d="M1273.62 1368.85c-229.39 27.35-292.95-74.3-314.1-144.89-10.78-36-4.24-66.38 3.66-97.8 7.58-30.14 16.39-61.23 12.33-99.21-1.44-13.42-3-29.35-3.61-46.39-2.9-81.43 16.75-188.14 182.1-166.83 0 0 25-38.62 96.9-35.89 66.56 2.53 132.16 54.64 157.91 144q3.08 10.65 5.37 22c14.55 72.23 39.15 94.35 61.36 129.22a226.49 226.49 0 0 1 25.93 55.77c25.53 80.87 1.53 212.67-227.85 240.02z" fill="#672410"/>
            <path d="M1273.62 1368.85c-229.39 27.35-292.95-74.3-314.1-144.89-10.78-36-4.24-66.38 3.66-97.8 2.91 22.88 16 71.45 74.88 83 77.7 15.28 77.45-67.31 185.86-81s120 4.83 187.65 6.37c41.16.93 57.47-34 63.92-61.53a226.49 226.49 0 0 1 25.93 55.77c25.58 80.93 1.58 212.73-227.8 240.08z" style="mix-blend-mode:multiply" opacity=".28" fill="#772f1e"/>
            <path d="M1080.55 1333.11c-3.85.32-7.49 1-11.37.91a97.21 97.21 0 0 1-10.36-.79 72.07 72.07 0 0 1-20-5.77c-9.92-4.55-19.28-11.54-25.11-20.89s-7.92-20.11-7.83-31.1c.1-11.24 2.34-22.3 4.15-33.36s3.82-22.49 1.57-33.48c-.37-1.82 2.54-2.65 3.14-.9 3.81 11 4.68 22.14 3.73 33.7-1.59 19.31-7.79 42.12 4.11 59.46 5.73 8.37 14 14.34 23.37 18.06a98.2 98.2 0 0 0 16.72 4.79c3.19.65 6.39 1.16 9.6 1.66 2.82.45 5.42 1.36 8.26 1.76 3.25.45 3.47 5.67.02 5.95z" fill="#772f1e"/>
            <path d="M1449.93 1121.3c.62 18.49-3.94 37.23-11.54 54.22a202.77 202.77 0 0 1-23.46 39.32 191.9 191.9 0 0 1-14.57 17c-2.86 3-5.84 5.69-9 8.36-2.74 2.34-5.34 4.78-8.7 6.16-2.73 1.12-4.64-1.9-3.31-4.16 2.17-3.69 5.72-6.46 8.55-9.64s5.89-6.39 8.77-9.64a235.32 235.32 0 0 0 15.46-19.47c15.76-22.2 28.6-48.78 29.86-76.4q.15-3.3.08-6.6c-.33-15-4.26-30.27-12.74-42.78-7-10.4-18.6-21.46-14.94-35.23.31-1.18 1.9-.51 1.9.5 0 9.37 6.07 16.48 11.75 23.3 5.44 6.55 10.41 13.28 14 21a87.87 87.87 0 0 1 7.89 34.06z" fill="#772f1e"/>
            <path d="M1411.57 1134.57a51.88 51.88 0 0 1-9.16 30.57c-5.77 8.41-13.47 15.29-20.81 22.28-7.21 6.84-14.21 14.12-18.44 23.24a52.06 52.06 0 0 0-2.87 34.35c.46 1.78-2.1 2.16-2.86.81a44.3 44.3 0 0 1-2.78-37.33c7.32-19.52 26.78-30.27 39.18-46a48.64 48.64 0 0 0 10.49-28.14c0-.64.06-1.3.07-1.95a100.5 100.5 0 0 0-1.69-17.65c-1-5.92-1.91-12-3.29-17.85-.37-1.59 2.17-2.26 2.73-.78 2.4 6.34 5 12.38 6.72 19a78.86 78.86 0 0 1 2.71 19.45z" fill="#772f1e"/>
            <path d="M1384.32 1125.71a50.14 50.14 0 0 1-1.26 7c-2.11 8.33-6.3 15.68-12 22.5-8.13 9.79-18.29 17.59-26.71 27.1-7.38 8.35-14.09 18.51-14.46 30-.3 9.68 4.44 18.79 11.89 24.81 1.54 1.25.67 4.4-1.57 3.88-10.51-2.44-16.73-12.34-18.18-22.63-1.66-11.67 2.86-23.18 9.44-32.64 7.64-11 18.31-19.41 28-28.5 7.53-7.07 15.5-15.29 19.87-25a39.41 39.41 0 0 0 2.41-6.95 1.29 1.29 0 0 1 2.57.43z" fill="#772f1e"/>
            <path d="M1313 1188.67c-16.14 12.85-13.28 37.6-1.48 52.32a1.77 1.77 0 0 1-2.43 2.51 40.37 40.37 0 0 1-11.76-13.94 32.84 32.84 0 0 1-3.08-17.52 34 34 0 0 1 17-26.23c1.75-1 3.19 1.71 1.75 2.86z" fill="#772f1e"/>
            <path d="M1492.48 1179.39c3.22 21.15-2.37 41.62-13 60a174.21 174.21 0 0 1-19.64 27.1c-3.84 4.41-7.83 8.69-11.86 12.92-3.86 4.05-7.58 8.34-13.22 9.6a2.94 2.94 0 0 1-3.33-3.26c1.13-5.46 5-9.07 8.81-12.94s7.19-7.5 10.67-11.38a206.16 206.16 0 0 0 19.67-24.9c10.76-16.5 18.92-36.57 18.25-56.58-.06-2.35 3.28-2.95 3.65-.56z" fill="#772f1e"/>
            <path d="M1080.55 1333.11c-3.85.32-7.49 1-11.37.91a97.21 97.21 0 0 1-10.36-.79 72.07 72.07 0 0 1-20-5.77c-9.92-4.55-19.28-11.54-25.11-20.89s-7.92-20.11-7.83-31.1c.1-11.24 2.34-22.3 4.15-33.36s3.82-22.49 1.57-33.48c-.37-1.82 2.54-2.65 3.14-.9 3.81 11 4.68 22.14 3.73 33.7-1.59 19.31-7.79 42.12 4.11 59.46 5.73 8.37 14 14.34 23.37 18.06a98.2 98.2 0 0 0 16.72 4.79c3.19.65 6.39 1.16 9.6 1.66 2.82.45 5.42 1.36 8.26 1.76 3.25.45 3.47 5.67.02 5.95z" style="mix-blend-mode:multiply" opacity=".28" fill="#772f1e"/>
            <path d="M1313 1188.67c-16.14 12.85-13.28 37.6-1.48 52.32a1.77 1.77 0 0 1-2.43 2.51 40.37 40.37 0 0 1-11.76-13.94 32.84 32.84 0 0 1-3.08-17.52 34 34 0 0 1 17-26.23c1.75-1 3.19 1.71 1.75 2.86z" style="mix-blend-mode:multiply" opacity=".28" fill="#772f1e"/>
            <path d="M1371.08 1155.26c-8.13 9.79-18.29 17.59-26.71 27.1-7.38 8.35-14.09 18.51-14.46 30-.3 9.68 4.44 18.79 11.89 24.81 1.54 1.25.67 4.4-1.57 3.88-10.51-2.44-16.73-12.34-18.18-22.63-1.66-11.67 2.86-23.18 9.44-32.64 7.64-11 18.31-19.41 28-28.5 7.53-7.07 15.5-15.29 19.87-25 1.21.15 2.45.28 3.7.42-2.06 8.39-6.3 15.74-11.98 22.56z" style="mix-blend-mode:multiply" opacity=".28" fill="#772f1e"/>
            <path d="M1381.6 1187.42c-7.21 6.84-14.21 14.12-18.44 23.24a52.06 52.06 0 0 0-2.87 34.35c.46 1.78-2.1 2.16-2.86.81a44.3 44.3 0 0 1-2.78-37.33c7.32-19.52 26.78-30.27 39.18-46a48.64 48.64 0 0 0 10.49-28.14c2.35.1 4.76.18 7.25.24a51.88 51.88 0 0 1-9.16 30.57c-5.77 8.39-13.47 15.27-20.81 22.26z" style="mix-blend-mode:multiply" opacity=".28" fill="#772f1e"/>
            <path d="M1438.39 1175.52a202.77 202.77 0 0 1-23.46 39.32 191.9 191.9 0 0 1-14.57 17c-2.86 3-5.84 5.69-9 8.36-2.74 2.34-5.34 4.78-8.7 6.16-2.73 1.12-4.64-1.9-3.31-4.16 2.17-3.69 5.72-6.46 8.55-9.64s5.89-6.39 8.77-9.64a235.32 235.32 0 0 0 15.46-19.47c15.76-22.2 28.6-48.78 29.86-76.4a53.76 53.76 0 0 0 7.91-5.76c.65 18.5-3.9 37.24-11.51 54.23z" style="mix-blend-mode:multiply" opacity=".28" fill="#772f1e"/>
            <path d="M1492.48 1179.39c3.22 21.15-2.37 41.62-13 60a174.21 174.21 0 0 1-19.64 27.1c-3.84 4.41-7.83 8.69-11.86 12.92-3.86 4.05-7.58 8.34-13.22 9.6a2.94 2.94 0 0 1-3.33-3.26c1.13-5.46 5-9.07 8.81-12.94s7.19-7.5 10.67-11.38a206.16 206.16 0 0 0 19.67-24.9c10.76-16.5 18.92-36.57 18.25-56.58-.06-2.35 3.28-2.95 3.65-.56z" style="mix-blend-mode:multiply" opacity=".28" fill="#772f1e"/>
            <path d="M1404.65 1312.75c.15 5.53-4.91 9.8-10 12-12.69 5.41-27.11 3.23-40.86 2.31-46.52-3.11-92.62 9.35-139.19 11.51-8.85.4-17.71.44-26.57.48l-120.13.51c-4.63 0-9.73-.12-13.18-3.21s-3.11-10.2 1.42-11.16l-6.7-5.51c24.15-33 69.4-51.93 105-72.06 6.71-3.79 13.43-7.59 20.4-10.89 1-.48 2-1 3-1.4q3.32-1.48 6.71-2.78c28.88-11.15 60.87-12.6 91.66-7.32q8.68 1.48 17.22 3.67 3.68.93 7.3 2c41.45 12.07 81 36.85 101.5 74.89a16.07 16.07 0 0 1 2.42 6.96z" fill="#ffc76e"/>
            <path d="M1276.24 1225.2c-.85 2.07-15.61 20.2-46.73 21.43-28 1.1-41.16-8.73-44.93-14.11 28.88-11.15 60.87-12.6 91.66-7.32z" style="mix-blend-mode:multiply" fill="#ffdf7b"/>
            <path d="M1261.83 1224.46s-6.09 13-32.32 13.52-33.42-8.31-33.42-8.31l-1.43-9.75-2.06-14 60.26-13.9 5.66-1.31.35 3.6 1.84 18.67z" fill="#ea9573"/>
            <path d="M1330.67 1437.26c-16.33 11.43-43.22 23.92-85.05 27.47-3.68.32-7.28.5-10.8.57h-4.86a154.17 154.17 0 0 1-105.07-42.3 228.16 228.16 0 0 1 22.57-10.18h57.37l39 10c23.76-1.34 68.28-2.66 79.87 5.08 2.73 1.83 5.17 5.1 6.97 9.36z" style="mix-blend-mode:multiply" fill="#2d7f75" opacity=".36"/>
            <path d="M1339.29 1321.66c-2.26 17.23-5.17 34.38-7.6 51.59-.18 1.18-.34 2.37-.51 3.56-.87 6.41-1.42 12.85-1.86 19.29-.84 12.05-1.3 24.12-2.86 36.06-.41 3.09-11.15 4.71-13.27 5.23-9.92 2.43-20 4.3-30.12 5.81-22.42 3.34-45 6.58-67.69 4.81a127.32 127.32 0 0 1-40.73-9.64 113.82 113.82 0 0 1-18.69-10.63c-4.52-3.07-11.31-7.46-12.56-13.27-.5-2.27-1.61-13.89-2.16-16.54-1.53-7.24-3.26-15.74-5-24.68-4.3-21.34-9-45.13-12-60z" fill="#ffc76e"/>
            <path d="M1192 1295.62a156.91 156.91 0 0 1-39.25-40.16c-2.92-4.32-5.65-8.85-7.09-13.86-1.24-4.35-1-10 2.93-12.23 2.55-1.47 5.87-.92 8.38.61s4.38 3.89 6.19 6.21q22.35 28.53 43.9 57.7z" fill="#1f6884"/>
            <path d="M1245.91 1315.55l-25.73.71a224 224 0 0 0-26 1.71 114 114 0 0 0-26.29 7 4.25 4.25 0 0 0-2.66 2.1c-.47 1.27.36 2.65 1.32 3.6 2.88 2.88 7.08 4 11.11 4.56 10.16 1.49 20.51.58 30.71-.66 15.41-1.86 30.71-4.44 46-7z" fill="#ea9573"/>
            <path d="M1174.29 1320.21q4.7-11 10.3-21.66c1.31-2.48 2.74-5 5.05-6.59a15.33 15.33 0 0 1 6.73-2.11 53.35 53.35 0 0 1 17.82.79c4.24.91 9 2.95 10.06 7.14a8.92 8.92 0 0 1-1.79 7.34 24.56 24.56 0 0 1-5.82 5.16 9.53 9.53 0 0 1 9.21 16.58c3.62-.43 8.15 1.34 8.39 5a5.81 5.81 0 0 1-2.83 5 15.18 15.18 0 0 1-5.64 1.93 96.86 96.86 0 0 1-52.25-4.54z" fill="#f8a37a"/>
            <path d="M1397.19 1296.89c-39.45-28.29-124.13 2.23-160.2 18.66-.92 10.48 9 22.11 9.89 24 0 0 90.17-1.53 122.11-2.47s57.86-18.92 28.2-40.19z" fill="#ffdf7b"/>
            <path d="M1047.38 1321.66a22.84 22.84 0 0 1 1.94-3.7c4.54-7 19.72-16.77 27.9-18.22 48.49-8.59 86.27-1.55 103.42 6.59 2.09 1 2.44 24.69 2.95 28.66a3.26 3.26 0 0 1-3.48 4.47 574.4 574.4 0 0 1-112.7 2.42c-5.62-.44-11.47-1-16.24-4-6.03-3.88-6.17-10.46-3.79-16.22z" fill="#ffdf7b"/>
            <path d="M1260.7 1213c-7.37 6.67-17.07 13.57-26.42 14.58-18.52 2-39.11-7.42-39.62-7.66l-2.06-14 60.26-13.9 6 2.29z" style="mix-blend-mode:multiply" fill="#dd7258" opacity=".31"/>
            <path d="M1068.16 1303.55c3.76-.15 7.5-1.73 11.21-2.43a123 123 0 0 1 13-1.5c8.8-.71 17.67-1.52 26.51-1.66a205.29 205.29 0 0 1 26.11 1.26c4.52.51 9.06 1.1 13.54 1.94 4 .75 8.67 2.75 12.73 2.38a.65.65 0 0 0 .33-1.2c-3.22-2.46-8.38-3.06-12.27-4.06-4.57-1.17-9.15-2.24-13.8-3a144.82 144.82 0 0 0-27.35-2 237.1 237.1 0 0 0-26.34 2.38 98.92 98.92 0 0 0-13.22 2.68c-3.58 1-7.94 2.17-10.58 4.91a.19.19 0 0 0 .14.33z" fill="#ffb64d"/>
            <path d="M1241.22 1314.14c6.32-1.25 12.42-4 18.45-6.26 5.66-2.13 11.28-4.36 17-6.42a277.45 277.45 0 0 1 35.77-10.61 180.86 180.86 0 0 1 34.15-4.11c5.63-.12 11.32-.16 16.94.25 5.84.44 11.76.64 17.43 2.17a.11.11 0 0 0 .06-.22c-5.41-2-10.74-4.11-16.46-5a105 105 0 0 0-17.34-1.45 163.69 163.69 0 0 0-34.17 3.89c-12.34 2.72-24.18 6.91-35.91 11.56-5.75 2.28-11.48 4.6-17.15 7.07-6.29 2.74-13 5.23-18.85 8.9a.14.14 0 0 0 .11.26z" fill="#ffb64d"/>
            <path d="M1331.69 1373.25c-.18 1.18-.34 2.37-.51 3.56-.87 6.41-1.42 12.85-1.86 19.29l-29.6 8.84a275.53 275.53 0 0 1-138.22-1.53l-20.26-5.48c-1.53-7.24-3.26-15.74-5-24.68z" style="mix-blend-mode:multiply" fill="#ffdf7b"/>
            <path d="M1356.81 1021.38s22.63-14.94 38.68.24.93 61.85-14.88 68.51-22.86 3.31-22.86 3.31z" fill="#ed9772"/>
            <path d="M1052.55 1065.39s-25.94-7.91-37 11.19 16.64 59.58 33.69 61.49 22.85-3.31 22.85-3.31z" fill="#ed9772"/>
            <path d="M1358.82 954.62s4.79 64.52 5.23 117v.22c.07 7.87 0 15.46-.12 22.52v.14c-.5 21.12-2.15 37.41-5.8 41.92-13 16.06-92 74.61-125.91 77.27s-128.6-27-145.1-40.26c-5.28-4.25-12.72-20.85-20.4-41.44-16.31-43.77-33.69-105.61-33.69-105.61C1021.59 922 1074.36 878.57 1186 858.69s172.82 95.93 172.82 95.93z" fill="#f8a37a"/>
            <path d="M1031.23 1003c-3.87-11 3-22.9 10.17-32.69a312.62 312.62 0 0 1 93.38-83.54c29.63-17.39 64.28-30.52 98.68-26.65 16.52 1.86 32.09 7.54 47.45 13.17 7.09 2.6 14.25 5.23 20.45 9.28 5.64 3.67 10.32 8.41 14.79 13.24a298.48 298.48 0 0 1 46.89 67c2.7 5.29 5.29 10.9 5 16.8-.26 5.4-2.91 10.51-6 15.15a83.12 83.12 0 0 1-26.15 24.55q-10.2-24.12-20.42-48.23c-5.27 10.23-16.43 17.82-28.57 19.43A87.5 87.5 0 0 0 1258 953c-6.11 14.49-19.89 25.42-34.86 32.78a128 128 0 0 0-18.57-43.93l-8.33 44c-13.89-.11-27.37-6.65-35.11-17.05a48.88 48.88 0 0 0-6.92 39.25c-19.09 5.48-41.27-1.27-52.53-16l-4.08 47.63c-14.19-.46-27.93-6.36-37.23-16a63.23 63.23 0 0 0 2.15 37s-10.45-.94-13.63-7.81-17.66-49.87-17.66-49.87z" fill="#da8966" opacity=".28"/>
            <path d="M1222.55 879.65s-50.67 32.85-33.31 97.43c0 0-27.16-6.29-32.51-33.22 0 0-24.45 27.6-14.69 59.73 0 0-36-7.18-38-50.66 0 0-26.49 28.63-8.23 79.22 0 0-30.64-15.26-35-40.15 0 0-14.82 43.71 1.57 76.34a41.88 41.88 0 0 1-22.47-6.6c-11.2-7.41-21.51-23.11-28.77-55.26-14.2-62.85 54.54-152.28 158.11-162.15s187 47.33 204 99.56-14.34 89.94-14.34 89.94c7.21-11.74-26.38-168.83-136.36-154.18z" fill="#672410"/>
            <path d="M1198.68 886s27.73 40.47 32.2 86.49c0 0 26.59-27.91 27.38-42.61 0 0 31.16 18.83 38.57 55 0 0 19.16-18.82 14.33-37.08 0 0 28.2 18.53 32.37 67.51 0 0 19.45-15.25 17.17-39.33 0 .02-35.45-142.54-162.02-89.98z" fill="#672410"/>
            <path d="M1262.61 1008.83c1.52 1.75 3.64 1.23 5.76 1.14 2.47-.1 4.87-.44 7.32-.74a38.92 38.92 0 0 1 14.19.54c4.27 1.08 8.26 3.17 12.15 5.2a55.26 55.26 0 0 0 5.81 2.91 17.63 17.63 0 0 0 3.52 1.07c1.15.17 2.22-.19 3.35 0 1.36.29 1.93-1.38 1.31-2.33s-.73-2.35-1.47-3.39a19.35 19.35 0 0 0-2.89-3.11 38 38 0 0 0-6.53-4.49 45.72 45.72 0 0 0-15.28-5.47 40.36 40.36 0 0 0-16.89 1.17c-1.72.46-13.41 3.94-10.35 7.45z" fill="#5f130f"/>
            <path d="M1124.89 1032.07c-3.84-3-10.23-.79-14.42.43a51.47 51.47 0 0 0-13.42 6.31 57.08 57.08 0 0 0-11 9.24c-2.82 3-7.47 8.43-5.48 12.83a3.19 3.19 0 0 0 3.25 1.81c3.94-.14 7.14-5.49 9.68-8a52.34 52.34 0 0 1 9.54-7.62 62.18 62.18 0 0 1 10.63-5c3.83-1.44 9.26-1.55 11.93-4.9a3.67 3.67 0 0 0-.73-5z" fill="#5f130f"/>
            <path d="M1058.94 1119.84c-9.23-2.77-19-10.39-23.39-19-2-4-2.67-10.82 2.83-12.38 4.54-1.28 7.31 4.46 9.83 7.24 1.32 1.45 4.12.08 3.11-1.87-2.69-5.23-5.5-11.89-12.49-11.72-7.16.17-11.56 7.14-11.36 13.73.25 8.06 6.12 14.78 11.52 20.21 5.56 5.6 12 9.92 20 7.07a1.77 1.77 0 0 0-.05-3.28z" style="mix-blend-mode:multiply" fill="#da8966" opacity=".44"/>
            <path d="M1391.73 1042.47c-1.29-6-7-10.59-13-7.16-4 2.32-9.67 11.57-4.4 15.14a1.12 1.12 0 0 0 1.67-.47c1.88-3.44 1.44-8.56 5.79-10.38 6-2.5 5.45 8.27 5.2 11.37a26.2 26.2 0 0 1-3 11c-2 3.58-5.37 5.42-8.64 7.67a1.34 1.34 0 0 0 0 2.09c5.71 4.69 11.83-3.61 13.95-8.36a36.4 36.4 0 0 0 2.43-20.9z" style="mix-blend-mode:multiply" fill="#da8966" opacity=".44"/>
            <path d="M1263.21 1137.88c-.85 7-3 16.84-8.53 25.64-5.74 9.23-15.1 17.32-30.35 19.88-17.31 2.91-29.62-3.8-38.1-12.62a69.6 69.6 0 0 1-13.29-20.7 4.74 4.74 0 0 1-.2-3.28 4.9 4.9 0 0 1 5.5-3.46l1.69.28a124.18 124.18 0 0 0 75.61-11.16 5.53 5.53 0 0 1 1.62-.51 5.36 5.36 0 0 1 5.51 2.87 5.14 5.14 0 0 1 .54 3.06z" fill="#831532"/>
            <path d="M1262.67 1134.82c-5.45 5.31-20.92 18.51-42.72 21.67-20.86 3-39.46-5.45-47.21-9.69a4.9 4.9 0 0 1 5.5-3.46l1.69.28a124.18 124.18 0 0 0 75.61-11.16 5.53 5.53 0 0 1 1.62-.51 5.36 5.36 0 0 1 5.51 2.87z" fill="#ffffff"/>
            <path d="M1254.68 1163.52c-5.74 9.23-15.1 17.32-30.35 19.88-17.31 2.91-29.62-3.8-38.1-12.62 10.27-4.2 36.97-13.05 68.45-7.26z" fill="#de6d5c"/>
            <path fill="#f2786b" d="M1125.348 1123.368c14.092 1.282 24.958 8.434 24.272 15.975-.686 7.541-12.665 12.614-26.757 11.332s-24.958-8.435-24.272-15.976c.686-7.54 12.665-12.614 26.757-11.331z"/>
            <path d="M1334.45 1103c2.13 7.26-7.15 16.38-20.73 20.36s-26.32 1.31-28.44-6 7.15-16.38 20.73-20.36 26.31-1.26 28.44 6z" fill="#f2786b"/>
            <path d="M1363.08 1050.06l1 21.77-.12 22.52v.14c-.5 21.12-2.15 37.41-5.8 41.92-13 16.06-92 74.61-125.91 77.27s-128.6-27-145.1-40.26c-5.28-4.25-12.72-20.85-20.4-41.44-8.21-21-15.54-45.44-15.54-45.44 3.77 13.38 22.16 57.08 39 79 11.39 14.8 111.07 38.85 144.26 35.61s77.41-41.92 101.51-59.32c23.72-17.13 27.02-90.17 27.1-91.77z" style="mix-blend-mode:multiply" opacity=".21" fill="#da8966"/>
            <path d="M1408.71 921.82c-94-103.73-185.66-92.81-226.83-80.19a255.33 255.33 0 0 1-51.74 10.18c-108.11 9.77-145.48 78.6-158.29 128.76-2.85-81.43 16.75-188.14 182.05-166.83 0 0 25-38.62 96.9-35.89 66.56 2.53 132.2 54.63 157.91 143.97z" style="mix-blend-mode:screen" opacity=".27" fill="#772f1e"/>
            <path d="M1210.64 1106.62A29.83 29.83 0 0 0 1198 1112a2.32 2.32 0 0 0-.71.72c-.63 1.16.82 2.34 2.07 2.79 7.88 2.79 16.66.91 24.44-2.13a11.14 11.14 0 0 0 5-3.2c.76-1 1.07-2.64 0-3.36a2.93 2.93 0 0 0-1.49-.38 56.32 56.32 0 0 0-22.79 3.34z" fill="#da8966" opacity=".21"/>
            <path d="M1197.81 1113.79c1.94-1.06 3.43-2.71 5.49-3.68a26.52 26.52 0 0 1 7.54-2 43.4 43.4 0 0 1 7.37-.63 12.88 12.88 0 0 1 7.06 2.3c2.33 1.43 5.39-1.23 3.49-3.6-4.15-5.17-12.52-4-18.24-3.07-4.87.78-14.39 2.73-14.85 9.08-.08 1.07 1 2.19 2.14 1.6z" fill="#d88261"/>
            <path d="M1238.77 1022.53c-2.1-20.91-27.61-21.52-43.14-17.25-9.21 2.53-24.4 4.15-31.67 10.17-7 5.78-9.42 16.28-5.31 24.42 2 3.86 5.09 7 8.08 10.1a231.33 231.33 0 0 1 23.77 29.29c3.17 4.64 6.76 9.8 12.27 10.85 3.8.72 7.73-.77 10.87-3 6.31-4.54 10-11.92 12.31-19.34s3.57-15.18 6.33-22.46c2.82-7.49 7.29-14.85 6.49-22.78z" fill="#f8a37a" opacity=".11"/>
            <path d="M1290.14 1644.87c-21-21.9-56.82-165.91-60-178.65.24.9.49 1.8.77 2.68 4.79 15.51 30.3 92.23 52.84 93 28.88 1 51.86-88.58 48.31-118.52 7.23 31.21-20 224.42-41.92 201.49z" style="mix-blend-mode:multiply" fill="#2d7f75" opacity=".36"/>
            <path d="M1315.68 1676.05a52.85 52.85 0 0 0-3.47 28.21c.74 4.82 2.46 9.57 2.36 14.49-.08 4-1.48 8.14-4.59 10.64a18 18 0 0 1-7.81 3.13 72.43 72.43 0 0 1-19.26 1.42 17.22 17.22 0 0 1-7.31-1.68 9.73 9.73 0 0 1-4.5-5.5 16 16 0 0 1-.6-7.75c.82-5.08 3.43-9.68 5.25-14.51 4-10.58 8.28-47.4-.8-70.74a114.37 114.37 0 0 1-10.78-36.57 2.56 2.56 0 0 1 .25-1.41 2.5 2.5 0 0 1 3.61-1 48.54 48.54 0 0 0 47.14 2.4 1.76 1.76 0 0 1 2.53 1.46c.3 4.24-1.19 8.58-2.51 12.72a164.76 164.76 0 0 0-5.72 24.53 58.25 58.25 0 0 1 7.67 10.22c2.49 4.24 4.25 8.77 4.25 12.88 0 6.01-3.39 11.48-5.71 17.06z" fill="#ffdf5f"/>
            <path d="M1315.68 1676.05a52.85 52.85 0 0 0-3.47 28.21c.74 4.82 2.46 9.57 2.36 14.49-.08 4-1.48 8.14-4.59 10.64a18 18 0 0 1-7.81 3.13 72.43 72.43 0 0 1-19.26 1.42 17.22 17.22 0 0 1-7.31-1.68 9.73 9.73 0 0 1-4.5-5.5c6.72-1 13.63-1.41 19.59-4.57 7.28-3.87 12-11.44 14.46-19.3s3.09-16.15 4.25-24.32a177.61 177.61 0 0 1 7.74-32.47c2.49 4.24 4.25 8.77 4.25 12.88 0 6.02-3.39 11.49-5.71 17.07z" fill="#f7bf30"/>
            <path d="M1201.9 1620.92h-9.92c-23.89-15.77-62.55-42.73-91.54-69.88a39.4 39.4 0 0 0 29.94 3c23.25-6.72 30.95-20.83 33.48-30.19-.14 26.09 22.43 67.16 37.32 91.38.45 3.53.72 5.69.72 5.69z" style="mix-blend-mode:multiply" fill="#2d7f75" opacity=".36"/>
            <path d="M1211.93 1644.18a43.17 43.17 0 0 1-18 8.72c-7 1.5-14.42.36-21.13 3.19-15.32 6.45-23 27.29-42.46 23.32-.53-.1-1.07-.23-1.62-.37-6.11-1.62-30.19-28.06 11.21-39.86 9.18-2.63 22.62-4.62 29.4-12a9.14 9.14 0 0 0 2.74-6c0-2.78-1.83-5.17-3.63-7.3-6.9-8.13-34.38-24.72-24-26.39 3.19-.51 24.94-10.27 29.35-16.75 1.07-1.56 3.12-2.85 4.85-2.13a4.36 4.36 0 0 1 1.65 1.46 166.4 166.4 0 0 1 11.55 16.49c2.42 3.85 4.75 7.76 7.08 11.66 3.42 5.69 7 11.52 10.85 16.9 3.45 4.75 8.27 9.21 8.74 15.43.49 5.26-2.57 10.26-6.58 13.63z" fill="#ffdf5f"/>
            <path d="M1211.93 1644.18a43.17 43.17 0 0 1-18 8.72c-7 1.5-14.42.36-21.13 3.19-15.32 6.45-23 27.29-42.46 23.32 8-17.81 24.68-31.71 43.87-35.65 5.21-1.07 10.65-1.49 15.45-3.78a21.92 21.92 0 0 0 12.2-19.06c.16-11.92-9.44-23.09-10-34.33 2.42 3.85 4.75 7.76 7.08 11.66 3.42 5.69 7 11.52 10.85 16.9 3.45 4.75 8.27 9.21 8.74 15.43.47 5.23-2.59 10.23-6.6 13.6z" fill="#f7bf30"/>
            <g style="mix-blend-mode:screen" opacity=".27">
                <path d="M1161.05 830.64c-11 5.25-19.29 16.7-26.21 26.36a189.54 189.54 0 0 0-18.78 32.06c-9.86 21.81-14.42 46.55-7.7 70 3.32 11.58 9.23 25.35 21.11 30.3a1.07 1.07 0 0 0 1.37-1.41c-3.7-9.8-9.75-18.47-12.54-28.68a85.28 85.28 0 0 1-2.56-31.24c2.38-22.6 12.38-43.34 24.47-62.28 3.5-5.48 7.25-10.76 11.25-15.89s8.87-9.85 12.72-15.24c1.46-2.08-.71-5.13-3.13-3.98z" fill="#772f1e"/>
                <path d="M1169.06 860.22c1.52-2.85-2.76-6-5.06-3.78-14.1 13.56-17 35.75-14.34 54.31a100.92 100.92 0 0 0 9.94 31.12c4.55 9 10.21 20.36 19.18 25.75.41.25 1.13 0 1-.59-2.34-9.54-9.08-17.94-13.11-26.83a103.74 103.74 0 0 1-8.77-28.93 75 75 0 0 1 1.12-26.42c1.98-8.75 5.83-16.78 10.04-24.63z" fill="#772f1e"/>
                <path d="M1140.78 831.62c-12.22 4.12-22.75 13.08-32.12 21.73a211.76 211.76 0 0 0-26.07 28.86c-16.06 21.5-29.88 45.84-28.75 73.47.62 15 6.36 28.92 15.45 40.71 1.37 1.78 4.45 0 3.42-2.07-11-22.18-12.48-49.31-2.78-72.15 9.55-22.5 25.21-43.19 42.3-60.51 9.63-9.76 20.93-18 29.92-28.32.85-.93-.39-2.05-1.37-1.72z" fill="#772f1e"/>
                <path d="M1141.62 821.2c-16.34.47-32.59 9.67-45.85 18.6a159.15 159.15 0 0 0-35.92 33.48c-23.36 29.68-32.83 66.83-36.72 103.86a153.87 153.87 0 0 0-.28 34.12 85.05 85.05 0 0 0 3.58 17 57.86 57.86 0 0 0 3.23 7.71c1.33 2.65 3.24 4.58 4.88 7 1.5 2.25 4.39-.08 3.73-2.25-.79-2.63-.89-5.41-1.56-8.11-.51-2.07-1-4.16-1.39-6.24-1-4.63-1.92-9.27-2.51-14a146.77 146.77 0 0 1-.57-28.81 272.74 272.74 0 0 1 10.59-58.27 148.08 148.08 0 0 1 53.48-75.45 153.32 153.32 0 0 1 22.21-13.82c8-4 16.29-7.19 24-11.61a1.73 1.73 0 0 0-.9-3.21z" fill="#772f1e"/>
                <path d="M1117.2 818.73a81.72 81.72 0 0 0-11.48 1.72q-5.71 1.51-11.33 3.29c-7.65 2.45-15.15 5.31-22.52 8.5-14.35 6.18-27.75 14.27-39.21 25-20.89 19.48-33.05 46.28-38.53 74a186.6 186.6 0 0 0-3.19 42.2c.53 16.91 4.14 33.63 4.28 50.55s-3.53 33.2-9.43 49.08c-5.43 14.62-11.84 29.37-13 45.11-2.11 29.64 16.62 60.82 46.48 67.66.9.2 1.51-1.25.69-1.71-21.65-12.36-38.88-35.9-38.52-61.55.22-14.91 6-29 11.36-42.65 5.76-14.65 10.59-29.57 12.18-45.3 1.72-17-.88-33.53-2.51-50.4a194 194 0 0 1 .39-40.74c3.05-26.44 12.23-51.77 29-72.6 10.32-12.78 23.72-22.79 38.07-30.66a178.18 178.18 0 0 1 23.6-10.58c3.85-1.44 7.75-2.78 11.65-4.09 4.29-1.43 8.29-3.28 12.46-5a.92.92 0 0 0-.44-1.83z" fill="#772f1e"/>
                <path d="M1056.9 1273.26c-3.52 1.2-6.68-3.31-3.49-5.79 8.69-6.75 15.49-16.35 17.85-27.19 2.29-10.57.57-20.83-3.68-30.13-4.78-10.43-12.75-19.65-21.85-26.72-18-14-45.67-22.25-47.54-48.77a.81.81 0 0 1 1.6-.23c3.89 14.91 19.58 23.71 32.12 30.44 11.5 6.18 22.29 12.6 31.43 22.07a71.4 71.4 0 0 1 14.05 20.8 64.92 64.92 0 0 1 3.59 10.58c5.02 20.24-2.65 47.68-24.08 54.94z" fill="#772f1e"/>
                <path d="M1117.64 1227.54c1.44 11.28-1.53 25.76-14.63 28.17-4 .72-4.68-4.49-1.78-6.22 10.19-6.07 8.46-20.28 5.77-29.94a51.73 51.73 0 0 0-11.3-20.89 42.94 42.94 0 0 0-5.66-5.2c-8.26-6.3-18.17-10-26.61-16.11-7.85-5.64-13.72-12.8-16-22.3-.37-1.54 2-2.08 2.58-.74 4.65 10.4 15.64 16.75 25.38 21.72s19.68 9.59 27.19 17.7c.56.6 1.1 1.22 1.63 1.86a63 63 0 0 1 13.43 31.95z" fill="#772f1e"/>
                <path d="M1146 1225.93c0 6-4.23 15.35-11.51 14.74a2.26 2.26 0 0 1-1.51-3.56c1.61-2.07 3.63-3.25 4.82-5.75a15.28 15.28 0 0 0 1.52-6.9c-.06-6.29-3.27-11.77-7.56-16.16-1.21-1.22.8-3.25 2.07-2.13 5.81 5.13 12.17 11.42 12.17 19.76z" fill="#772f1e"/>
                <path d="M994 1261.1a31.52 31.52 0 0 1-6.42-4.47 59.67 59.67 0 0 1-5.33-6.22A97 97 0 0 1 974 1237a127.84 127.84 0 0 1-14.61-61.43c.17-10.26 1-21 5.59-30.26a1.69 1.69 0 0 1 2.1-.71 1.09 1.09 0 0 1 .64 1v1.1c.1 9.61-1.19 19.14-.69 28.76a145.12 145.12 0 0 0 4.63 29.45 138.6 138.6 0 0 0 10.73 27.74c2.32 4.49 4.93 8.85 7.59 13.15 1.24 2 2.51 4 3.72 6a56.73 56.73 0 0 1 3.13 7.09 1.84 1.84 0 0 1-2.83 2.21z" fill="#772f1e"/>
                <path d="M1243.58 898.27c-6-10.41-14.68-18.54-23.88-26.12-4.83-4-9.74-7.86-14.59-11.81-2.37-1.93-4.68-3.91-6.9-6-2-1.89-3.83-4.39-6.2-5.8a.56.56 0 0 0-.88.37c-.84 4.75 4 9.39 7 12.42 4.15 4.18 8.55 8 13 11.91 8.77 7.6 17.65 15.41 23.91 25.3 6.12 9.67 8.8 20.49 6.61 31.78a71.94 71.94 0 0 1-5 15.33c-1.92 4.36-5 9.54-4.86 14.43 0 .62.85.7 1.18.3 1.87-2.26 3-5.21 4.46-7.75 1.33-2.3 2.74-4.56 4.14-6.82 2.9-4.68 6.16-9.31 7.7-14.66 3.16-11.15-.06-23.15-5.69-32.88z" fill="#772f1e"/>
                <path d="M1287.71 897.45c-17.27-18.24-40.56-27.89-62.13-39.83a201.16 201.16 0 0 1-18-11c-5.92-4.16-11.42-8.8-17.17-13.14-.65-.48-1.69.25-1.28 1 5.37 10.06 15.19 17.56 24.58 23.66 10.08 6.56 20.91 11.92 31.45 17.67 20.33 11.08 42.11 24.58 50.87 47.2 5.11 13.2 5 28.12 2 41.82-.36 1.7 2 2 2.75.71 12.05-22.8 3.87-50.19-13.07-68.09z" fill="#772f1e"/>
                <path d="M1345 938.87c-4-17-10.63-33.58-20.61-48s-23.36-25.21-38.7-33.2c-14.54-7.57-30.18-11.87-45.92-16.12-8.53-2.3-17.12-4.4-25.33-7.71s-15.31-7.94-22.81-12.48c-.85-.52-2.34.27-1.72 1.36 7.24 12.69 23 18.75 36.17 23.2 15.16 5.13 30.83 8.33 45.59 14.65 15.06 6.46 29.08 15.48 39.67 28.13 11.11 13.26 18.44 29.51 22.89 46.15a286.53 286.53 0 0 1 6.49 32c.85 5.66 1.68 11.29 2.75 16.91 1 5.23 1.86 10.59 4 15.5a.82.82 0 0 0 1.53-.26c2.36-9.4 1.67-20.32.74-29.89a232.91 232.91 0 0 0-4.74-30.24z" fill="#772f1e"/>
                <path d="M1372.09 926.42a137.37 137.37 0 0 0-25-57.34c-24.49-32.67-62.36-52.78-102.46-58.43a172.77 172.77 0 0 0-35.43-1.32c-12 .8-24.06 3.94-36.12 2.28-.83-.11-1.41 1.1-.64 1.58 8.21 5.06 18 3.79 27.17 3a191.68 191.68 0 0 1 31.24 0 163.16 163.16 0 0 1 59.41 16.23c34.57 17.17 62 48.78 71.64 86.43a184.73 184.73 0 0 1 5.29 38.09c.52 12.71-.63 25.79 1.38 38.37a1.15 1.15 0 0 0 2.18.27c3.72-10.92 4.3-23.11 4.24-34.56a193.55 193.55 0 0 0-2.9-34.6z" fill="#772f1e"/>
                <path d="M1484.1 1144.57c-.41 19.31-6.3 38.24-16 54.87a92.81 92.81 0 0 1-41.89 38.31c-2.54 1.17-4.89-2.61-2.55-4.23a104.52 104.52 0 0 0 10.71-8.41c27.57-24.77 44.79-60.86 38.67-98.34a120.14 120.14 0 0 0-7.48-26c-11-26.87-30.1-50.46-45.87-74.48-10.56-16.09-20.38-33-26.23-51.44-7.11-22.35-6.66-46-12.23-68.64-5.49-22.35-20.47-39.72-34.51-57.31-13.09-16.39-27.16-32.6-45.33-43.52-36.42-21.88-80.23-13.88-118.48-1.88a1.84 1.84 0 0 1-1.47-3.36 124 124 0 0 1 14.34-6.39c40.1-14.29 85.79-14.64 121.21 11.46 17.52 12.91 31.56 30 45.13 46.86 7.42 9.22 14.68 18.64 20.35 29.06 5.88 10.85 9.16 22.79 11.2 34.92 2.09 12.37 3 24.9 5.17 37.27a134.28 134.28 0 0 0 9.11 30.63c8 18.4 19.25 35.06 30.5 51.56 11.57 17 23.61 34.46 32.42 53.14 8.23 17.42 13.64 35.89 13.23 55.92z" fill="#772f1e"/>
                <path d="M996.8 1258.9a1.84 1.84 0 0 1-2.77 2.2 31.52 31.52 0 0 1-6.42-4.47 59.67 59.67 0 0 1-5.33-6.22A97 97 0 0 1 974 1237a127.84 127.84 0 0 1-14.61-61.43c.17-10.26 1-21 5.59-30.26a1.69 1.69 0 0 1 2.1-.71c.21.7.43 1.42.66 2.14.1 9.61-1.19 19.14-.69 28.76a145.12 145.12 0 0 0 4.63 29.45 138.6 138.6 0 0 0 10.73 27.74c2.32 4.49 4.93 8.85 7.59 13.15 1.24 2 2.51 4 3.72 6a56.73 56.73 0 0 1 3.08 7.06z" style="mix-blend-mode:multiply" opacity=".28" fill="#772f1e"/>
                <path d="M1081 1218.32c5 20.24-2.65 47.63-24.08 54.94-3.52 1.2-6.68-3.31-3.49-5.79 8.69-6.75 15.49-16.35 17.85-27.19 2.29-10.57.57-20.83-3.68-30.13a66 66 0 0 0 9.81-2.41 64.92 64.92 0 0 1 3.59 10.58z" style="mix-blend-mode:multiply" opacity=".28" fill="#772f1e"/>
                <path d="M1104.23 1195.59a63 63 0 0 1 13.41 32c1.44 11.28-1.53 25.76-14.63 28.17-4 .72-4.68-4.49-1.78-6.22 10.19-6.07 8.46-20.28 5.77-29.94a51.73 51.73 0 0 0-11.3-20.89c2.34-1.54 4.63-3.19 6.9-4.93.56.55 1.1 1.22 1.63 1.81z" style="mix-blend-mode:multiply" opacity=".28" fill="#772f1e"/>
                <path d="M1133.81 1206.17c5.83 5.13 12.22 11.42 12.17 19.76 0 6-4.23 15.35-11.51 14.74a2.26 2.26 0 0 1-1.51-3.56c1.61-2.07 3.63-3.25 4.82-5.75a15.28 15.28 0 0 0 1.52-6.9c-.06-6.29-3.27-11.77-7.56-16.16-1.21-1.22.8-3.25 2.07-2.13z" style="mix-blend-mode:multiply" opacity=".28" fill="#772f1e"/>
                <path d="M1484.1 1144.57c-.41 19.31-6.3 38.24-16 54.87a92.81 92.81 0 0 1-41.89 38.31c-2.54 1.17-4.89-2.61-2.55-4.23a104.52 104.52 0 0 0 10.71-8.41c27.57-24.77 44.79-60.86 38.67-98.34a120.14 120.14 0 0 0-7.48-26 104.33 104.33 0 0 0 5.31-12.12c8.23 17.42 13.64 35.89 13.23 55.92z" style="mix-blend-mode:multiply" opacity=".28" fill="#772f1e"/>
            </g>
            <path d="M1263.61 1084a27 27 0 0 1-10.17-20.75 31.24 31.24 0 0 1 8.68-21.64 30.36 30.36 0 0 1 21.07-9.67 25.12 25.12 0 0 1 20.62 9.94 34.41 34.41 0 0 1 3.52 6.48c1.86 4.26 3.31 8.8 3.23 13.45-.11 7.29-4 14.09-9.09 19.31-4 4-8.89 7.42-14.48 8.19-6 .83-11.91-1.37-17.54-3.56-3.67-1.42-7.7-3.19-9.27-6.8z" fill="#ffffff"/>
            <path d="M1163.77 1098a26.94 26.94 0 0 0-3.27-22.87 31.22 31.22 0 0 0-19.35-13 30.34 30.34 0 0 0-22.86 3.86 25.12 25.12 0 0 0-11.45 19.82 34.88 34.88 0 0 0 .73 7.34c.87 4.56 2.23 9.13 4.9 12.93 4.2 6 11.24 9.4 18.39 10.84 5.53 1.12 11.52 1.14 16.58-1.37 5.4-2.68 9.07-7.84 12.49-12.81 2.23-3.25 4.57-7 3.83-10.84z" fill="#ffffff"/>
            <path d="M1307.65 1065c-2.35-9-9.3-16.81-18.63-18.42-12.51-2.16-27 6-29.2 18.3a19.57 19.57 0 0 0-1.13 4.16c-3.24 21.37 23.63 26.21 38.24 18 7.8-4.5 13.07-13.04 10.72-22.04z" fill="#2d2d2d"/>
            <path d="M1154.88 1079.14c-.41-.36-.82-.7-1.24-1-6.69-5.13-15.86-5.52-23.49-2.36-8 3.34-14.31 10.38-14.94 19.26-.64 9.18 2.46 18.84 11.55 22.57 15.15 6.23 40.61-6.68 37.59-25a18.69 18.69 0 0 0-9.47-13.47z" fill="#2d2d2d"/>
            <path d="M1270.77 1076.17a7.69 7.69 0 0 0 1.21 6.11c.58 3.11 4.31 5 7.61 4.48a8.65 8.65 0 0 0 7.13-8.16c.49-9.26-13.86-11.75-15.95-2.43z" fill="#ffffff"/>
            <path d="M1153.44 1095.53a7.72 7.72 0 0 1 2.44 5.73c1.27 2.9-.78 6.52-3.77 8a8.68 8.68 0 0 1-10.49-2.73c-5.62-7.39 4.85-17.53 11.82-11z" fill="#ffffff"/>
            <path d="M942 1399.66l-4.61 10.2-12.32 27.22-187.88 415.17h-35.47s110.22-296.1 153.66-415c10.39-28.44 17-46.74 17.27-48.41z" fill="#e7a68d"/>
            <path d="M872.65 1388.87l69.35 10.79-16.93 37.42c-28.4.05-52.14.11-69.67.2 10.37-28.44 16.93-46.74 17.25-48.41z" style="mix-blend-mode:multiply" opacity=".44" fill="#cc9281"/>
            <path d="M1750.14 1852.25h-35.47L1527 1437.44l-17.09-37.78 11.1-1.73 58.23-9.06c.32 1.68 6.92 20.08 17.37 48.67 43.46 119.04 153.53 414.71 153.53 414.71z" fill="#e7a68d"/>
            <path d="M1596.58 1437.54l-69.61-.1-17.09-37.78 69.33-10.79c.32 1.68 6.92 20.13 17.37 48.67z" style="mix-blend-mode:multiply" opacity=".44" fill="#cc9281"/>
            <path style="mix-blend-mode:multiply" opacity=".44" fill="#cc9281" d="M1726.26 1852.24h-11.59l-187.7-414.8-17.09-37.78 11.1-1.73 25.85 11.93 179.43 442.38z"/>
            <path fill="#cc9281" d="M991.02 1381.68v28.18h-157.8v-28.18h157.8z"/>
            <path fill="#cc9281" d="M1460.84 1409.86v-28.18h157.8v28.18h-157.8z"/>
            <path fill="#f4b5a2" d="M1863.19 1350.12v31.56H586.58v-31.56h1276.61z"/>
            <path fill="#e7a68d" d="M1863.19 1357.31v24.37H586.58v-24.37h1276.61z"/>
            <path style="mix-blend-mode:multiply" opacity=".44" fill="#cc9281" d="M991.02 1381.68v28.18h-157.8v-28.18h157.8z"/>
            <path style="mix-blend-mode:multiply" opacity=".44" fill="#cc9281" d="M1460.84 1409.86v-28.18h157.8v28.18h-157.8z"/>
            <path style="mix-blend-mode:multiply" opacity=".44" fill="#cc9281" d="M937.37 1409.86l-12.32 27.23-187.86 415.15H720.4l178.28-442.38h38.69z"/>
            <path fill="#ff8155" d="M583.18 1206.73v45.02h181.28v-40.33l-181.28-4.69z"/>
            <path d="M583.18 1215.73v36h181.28v-27.63c-9.18 3.85-26.32 7.75-58.27 8.14-62.25.76-108.25-1.4-123.01-16.51z" style="mix-blend-mode:multiply" opacity=".36" fill="#f46d36"/>
            <path fill="#ffdf7b" d="M583.18 1245.33v52.37h209.46v-44.95l-209.46-7.42z"/>
            <path d="M583.18 1267.82v29.89h209.46V1270c-4.41 5.21-13.95 11-34.53 11-31.61 0-130.6 3.38-174.93-13.18z" style="mix-blend-mode:multiply" fill="#ffdf7b"/>
            <path fill="#02aaac" d="M574.72 1288.45v61.67h185.04l2.17-24.27 2.53-28.15-189.74-9.25z"/>
            <path d="M574.72 1319.28v30.84h185l2.17-24.28c-.19.32-6.67 10.28-35 11.86-28.69 1.6-146.24 4.69-152.17-18.42z" style="mix-blend-mode:multiply" fill="#2d7f75" opacity=".36"/>
            <path d="M1386 1334.07l-1.23 3.62-2.45 7.2-140.72 3.34-140.72-3.34-3.68-10.82s33 0 65.12-8.49 65.12-9.44 79.28 4.72c14.16-14.16 47.19-13.22 79.28-4.72s65.12 8.49 65.12 8.49z" fill="#c6bfb9"/>
            <path fill="#1f6884" d="M1384.13 1350.12h-285.02v-6.61h285.02v6.61z"/>
            <path d="M1386 1334.07l-1.23 3.62c-18.23.81-48.79-2.68-81.82-11.17s-60.41 7.55-61.35 7.55v-3.77c14.16-14.16 47.19-13.22 79.28-4.72s65.12 8.49 65.12 8.49z" fill="#d3ccc7"/>
            <path d="M1097.22 1334.07l1.23 3.62c18.23.81 48.79-2.68 81.82-11.17s60.41 7.55 61.35 7.55v-3.77c-14.16-14.16-47.19-13.22-79.28-4.72s-65.12 8.49-65.12 8.49z" fill="#d3ccc7"/>
            <path d="M911.47 1267.27h-8.22v-10.22h-81.4v93.15h81.4v-14.3h8.22a25.46 25.46 0 0 0 25.42-25.44v-17.76a25.45 25.45 0 0 0-25.42-25.43zm10.78 43.19a10.79 10.79 0 0 1-10.78 10.78h-8.22v-39.32h8.22a10.79 10.79 0 0 1 10.78 10.78z" fill="#f9c853"/>
            <path d="M887.3 1238.07c0 6.78-10.36 12.3-23.14 12.3s-23.15-5.52-23.15-12.3a7 7 0 0 1 .78-3.18 11.4 11.4 0 0 1 3.33-3.82c-4.8-1.84-8.06-5.43-8.06-9.54 0-4.3 3.56-8 8.71-9.75a6.38 6.38 0 0 1-3.34-5.24c0-3.92 4.5-7.07 10-7.07s10 3.15 10 7.07a6.4 6.4 0 0 1-3.32 5.24c5.15 1.75 8.71 5.45 8.71 9.75a8.15 8.15 0 0 1-1.28 4.31c8.46.47 15.56 3.36 18.79 7.35a7.64 7.64 0 0 1 1.97 4.88z" opacity=".8" fill="#ffffff"/>
            <path d="M911.47 1267.27h-5.13a75.74 75.74 0 0 1-73.81 58.81 76.72 76.72 0 0 1-10.68-.76v24.88h81.4v-14.3h8.22a25.46 25.46 0 0 0 25.42-25.44v-17.76a25.45 25.45 0 0 0-25.42-25.43zm10.78 43.19a10.79 10.79 0 0 1-10.78 10.78h-8.22v-39.32h8.22a10.79 10.79 0 0 1 10.78 10.78z" style="mix-blend-mode:multiply" fill="#f2704f" opacity=".19"/>
            <path d="M893.8 1260.93a28.34 28.34 0 0 1-3.23 12.91c-8.14 16.33-25.41 28.32-42.35 34a46.08 46.08 0 0 1-16.1 2.7 35.53 35.53 0 0 1-10.27-2v-51.55h71.59a23.54 23.54 0 0 1 .36 3.94z" style="mix-blend-mode:screen" opacity=".24" fill="#ffffff"/>
            <path d="M887.3 1238.07c0 6.78-10.36 12.3-23.14 12.3s-23.15-5.52-23.15-12.3a7 7 0 0 1 .78-3.18s8.47 9.52 25.67 8.11 17.94-9.81 17.94-9.81a7.64 7.64 0 0 1 1.9 4.88z" opacity=".52" fill="#ffffff"/>
            <path d="M1660.42 1325.75l228 6.5 15.54-6.5 71.32-165.75h-254.14L1671 1297z" fill="#b7b7b7"/>
            <path fill="#a0a0a0" d="M1903.99 1325.75v24.37h-321.67v-24.37h321.67z"/>
            <path d="M1582.32 1325.75v24.37H1904v-24.37l71.28-165.75c-1.22 2.18-82.34 144.68-302.07 137H1671l-10.54 28.79z" style="mix-blend-mode:multiply" opacity=".35" fill="#b7b7b7"/>
        </g>
    </g>
</svg>
